G04 #@! TF.GenerationSoftware,KiCad,Pcbnew,(5.1.2)-1*
G04 #@! TF.CreationDate,2019-06-01T19:46:23-07:00*
G04 #@! TF.ProjectId,ai03-pcb-guide,61693033-2d70-4636-922d-67756964652e,rev?*
G04 #@! TF.SameCoordinates,Original*
G04 #@! TF.FileFunction,Copper,L1,Top*
G04 #@! TF.FilePolarity,Positive*
%FSLAX46Y46*%
G04 Gerber Fmt 4.6, Leading zero omitted, Abs format (unit mm)*
G04 Created by KiCad (PCBNEW (5.1.2)-1) date 2019-06-01 19:46:23*
%MOMM*%
%LPD*%
G04 APERTURE LIST*
%ADD10R,1.905000X1.905000*%
%ADD11C,1.905000*%
%ADD12C,2.250000*%
%ADD13C,2.250000*%
%ADD14O,1.700000X2.700000*%
%ADD15C,0.800000*%
%ADD16C,0.381000*%
%ADD17C,0.254000*%
G04 APERTURE END LIST*
D10*
X99695000Y-95567500D03*
D11*
X97155000Y-95567500D03*
D12*
X95925000Y-86487500D03*
X95270001Y-87217500D03*
D13*
X94615000Y-87947500D02*
X95925002Y-86487500D01*
D12*
X100965000Y-85407500D03*
X100945000Y-85697500D03*
D13*
X100925000Y-85987500D02*
X100965000Y-85407500D01*
D10*
X80645000Y-95567500D03*
D11*
X78105000Y-95567500D03*
D12*
X76875000Y-86487500D03*
X76220001Y-87217500D03*
D13*
X75565000Y-87947500D02*
X76875002Y-86487500D01*
D12*
X81915000Y-85407500D03*
X81895000Y-85697500D03*
D13*
X81875000Y-85987500D02*
X81915000Y-85407500D01*
D10*
X99695000Y-76517500D03*
D11*
X97155000Y-76517500D03*
D12*
X95925000Y-67437500D03*
X95270001Y-68167500D03*
D13*
X94615000Y-68897500D02*
X95925002Y-67437500D01*
D12*
X100965000Y-66357500D03*
X100945000Y-66647500D03*
D13*
X100925000Y-66937500D02*
X100965000Y-66357500D01*
D10*
X80645000Y-76517500D03*
D11*
X78105000Y-76517500D03*
D12*
X76875000Y-67437500D03*
X76220001Y-68167500D03*
D13*
X75565000Y-68897500D02*
X76875002Y-67437500D01*
D12*
X81915000Y-66357500D03*
X81895000Y-66647500D03*
D13*
X81875000Y-66937500D02*
X81915000Y-66357500D01*
D14*
X36037500Y-68000000D03*
X43337500Y-68000000D03*
X43337500Y-63500000D03*
X36037500Y-63500000D03*
D15*
X51308000Y-80899000D03*
X51308000Y-85471000D03*
X49784000Y-73406000D03*
X69723000Y-78613000D03*
X66167000Y-91440000D03*
X43561000Y-93726000D03*
X46355000Y-74930000D03*
D16*
X51308000Y-80899000D02*
X51308000Y-82677000D01*
X51308000Y-82677000D02*
X51308000Y-85471000D01*
X51308000Y-80899000D02*
X51308000Y-74930000D01*
X51308000Y-74930000D02*
X49784000Y-73406000D01*
X69723000Y-78613000D02*
X69723000Y-87884000D01*
X69723000Y-87884000D02*
X66167000Y-91440000D01*
X57277000Y-91440000D02*
X51308000Y-85471000D01*
X66167000Y-91440000D02*
X57277000Y-91440000D01*
D17*
X75565000Y-68897500D02*
X75565000Y-87947500D01*
X94615000Y-68897500D02*
X94615000Y-87947500D01*
X43561000Y-93726000D02*
X46355000Y-90932000D01*
X46355000Y-90932000D02*
X46355000Y-74930000D01*
M02*
