G04 #@! TF.GenerationSoftware,KiCad,Pcbnew,(5.1.2)-1*
G04 #@! TF.CreationDate,2019-06-01T19:46:38-07:00*
G04 #@! TF.ProjectId,ai03-pcb-guide,61693033-2d70-4636-922d-67756964652e,rev?*
G04 #@! TF.SameCoordinates,Original*
G04 #@! TF.FileFunction,Copper,L2,Bot*
G04 #@! TF.FilePolarity,Positive*
%FSLAX46Y46*%
G04 Gerber Fmt 4.6, Leading zero omitted, Abs format (unit mm)*
G04 Created by KiCad (PCBNEW (5.1.2)-1) date 2019-06-01 19:46:38*
%MOMM*%
%LPD*%
G04 APERTURE LIST*
%ADD10R,1.400000X1.200000*%
%ADD11R,1.500000X0.550000*%
%ADD12R,0.550000X1.500000*%
%ADD13R,1.905000X1.905000*%
%ADD14C,1.905000*%
%ADD15C,2.250000*%
%ADD16C,2.250000*%
%ADD17R,1.250000X1.000000*%
%ADD18R,1.000000X1.250000*%
%ADD19R,1.200000X0.900000*%
%ADD20R,2.030000X1.140000*%
%ADD21R,1.300000X0.700000*%
%ADD22R,1.800000X1.100000*%
%ADD23R,0.500000X2.250000*%
%ADD24O,1.700000X2.700000*%
%ADD25C,0.800000*%
%ADD26C,0.254000*%
%ADD27C,0.381000*%
G04 APERTURE END LIST*
D10*
X59647000Y-70192000D03*
X57447000Y-70192000D03*
X57447000Y-68492000D03*
X59647000Y-68492000D03*
D11*
X53228000Y-86296000D03*
X53228000Y-85496000D03*
X53228000Y-84696000D03*
X53228000Y-83896000D03*
X53228000Y-83096000D03*
X53228000Y-82296000D03*
X53228000Y-81496000D03*
X53228000Y-80696000D03*
X53228000Y-79896000D03*
X53228000Y-79096000D03*
X53228000Y-78296000D03*
D12*
X54928000Y-76596000D03*
X55728000Y-76596000D03*
X56528000Y-76596000D03*
X57328000Y-76596000D03*
X58128000Y-76596000D03*
X58928000Y-76596000D03*
X59728000Y-76596000D03*
X60528000Y-76596000D03*
X61328000Y-76596000D03*
X62128000Y-76596000D03*
X62928000Y-76596000D03*
D11*
X64628000Y-78296000D03*
X64628000Y-79096000D03*
X64628000Y-79896000D03*
X64628000Y-80696000D03*
X64628000Y-81496000D03*
X64628000Y-82296000D03*
X64628000Y-83096000D03*
X64628000Y-83896000D03*
X64628000Y-84696000D03*
X64628000Y-85496000D03*
X64628000Y-86296000D03*
D12*
X62928000Y-87996000D03*
X62128000Y-87996000D03*
X61328000Y-87996000D03*
X60528000Y-87996000D03*
X59728000Y-87996000D03*
X58928000Y-87996000D03*
X58128000Y-87996000D03*
X57328000Y-87996000D03*
X56528000Y-87996000D03*
X55728000Y-87996000D03*
X54928000Y-87996000D03*
D13*
X99695000Y-95567500D03*
D14*
X97155000Y-95567500D03*
D15*
X95925000Y-86487500D03*
X95270001Y-87217500D03*
D16*
X94615000Y-87947500D02*
X95925002Y-86487500D01*
D15*
X100965000Y-85407500D03*
X100945000Y-85697500D03*
D16*
X100925000Y-85987500D02*
X100965000Y-85407500D01*
D13*
X80645000Y-95567500D03*
D14*
X78105000Y-95567500D03*
D15*
X76875000Y-86487500D03*
X76220001Y-87217500D03*
D16*
X75565000Y-87947500D02*
X76875002Y-86487500D01*
D15*
X81915000Y-85407500D03*
X81895000Y-85697500D03*
D16*
X81875000Y-85987500D02*
X81915000Y-85407500D01*
D13*
X99695000Y-76517500D03*
D14*
X97155000Y-76517500D03*
D15*
X95925000Y-67437500D03*
X95270001Y-68167500D03*
D16*
X94615000Y-68897500D02*
X95925002Y-67437500D01*
D15*
X100965000Y-66357500D03*
X100945000Y-66647500D03*
D16*
X100925000Y-66937500D02*
X100965000Y-66357500D01*
D13*
X80645000Y-76517500D03*
D14*
X78105000Y-76517500D03*
D15*
X76875000Y-67437500D03*
X76220001Y-68167500D03*
D16*
X75565000Y-68897500D02*
X76875002Y-67437500D01*
D15*
X81915000Y-66357500D03*
X81895000Y-66647500D03*
D16*
X81875000Y-66937500D02*
X81915000Y-66357500D01*
D17*
X62833250Y-70342000D03*
X62833250Y-68342000D03*
X54324250Y-70342000D03*
X54324250Y-68342000D03*
D18*
X47736250Y-81788000D03*
X49736250Y-81788000D03*
D17*
X51403250Y-73041000D03*
X51403250Y-75041000D03*
X68040250Y-78597000D03*
X68040250Y-76597000D03*
D18*
X62595250Y-91440000D03*
X64595250Y-91440000D03*
D17*
X49403000Y-86249000D03*
X49403000Y-88249000D03*
D19*
X87312500Y-73087500D03*
X87312500Y-69787500D03*
X106362500Y-69787500D03*
X106362500Y-73087500D03*
X87312500Y-92137500D03*
X87312500Y-88837500D03*
X106362500Y-88837500D03*
X106362500Y-92137500D03*
D20*
X34925000Y-78175000D03*
X34925000Y-80575000D03*
D21*
X47974250Y-73091000D03*
X47974250Y-74991000D03*
X40894000Y-74864000D03*
X40894000Y-72964000D03*
X37592000Y-72964000D03*
X37592000Y-74864000D03*
X68199000Y-86553000D03*
X68199000Y-88453000D03*
D22*
X35384001Y-97357845D03*
X41584001Y-93657845D03*
X35384001Y-93657845D03*
X41584001Y-97357845D03*
D23*
X41287500Y-68000000D03*
X40487500Y-68000000D03*
X39687500Y-68000000D03*
X38887500Y-68000000D03*
X38087500Y-68000000D03*
D24*
X36037500Y-68000000D03*
X43337500Y-68000000D03*
X43337500Y-63500000D03*
X36037500Y-63500000D03*
D25*
X51308000Y-80899000D03*
X51308000Y-85471000D03*
X49784000Y-73406000D03*
X69723000Y-78613000D03*
X66167000Y-91440000D03*
X43561000Y-93726000D03*
X46355000Y-74930000D03*
D26*
X59765250Y-70342000D02*
X59615250Y-70192000D01*
X62833250Y-70342000D02*
X59765250Y-70342000D01*
X59615250Y-72433000D02*
X58896250Y-73152000D01*
X59615250Y-70192000D02*
X59615250Y-72433000D01*
X58896250Y-76596000D02*
X58896250Y-73152000D01*
D27*
X57415250Y-70192000D02*
X57671600Y-70192000D01*
X59371600Y-68492000D02*
X59615250Y-68492000D01*
D26*
X57671600Y-70192000D02*
X59371600Y-68492000D01*
D27*
X59765250Y-68342000D02*
X59615250Y-68492000D01*
X62833250Y-68342000D02*
X59765250Y-68342000D01*
X59615250Y-68492000D02*
X59615250Y-67362250D01*
X59615250Y-67362250D02*
X59182000Y-66929000D01*
X59182000Y-66929000D02*
X53086000Y-66929000D01*
X53086000Y-66929000D02*
X52705000Y-67310000D01*
X52705000Y-67310000D02*
X52705000Y-69850000D01*
X53197000Y-70342000D02*
X54324250Y-70342000D01*
X52705000Y-69850000D02*
X53197000Y-70342000D01*
X54324250Y-70342000D02*
X54324250Y-71215250D01*
X54324250Y-71215250D02*
X57296250Y-74187250D01*
X57296250Y-74187250D02*
X57296250Y-75311000D01*
X57296250Y-75311000D02*
X57296250Y-76596000D01*
X55696250Y-87996000D02*
X55696250Y-84398250D01*
X54394000Y-83096000D02*
X53196250Y-83096000D01*
X55696250Y-84398250D02*
X54394000Y-83096000D01*
X62096250Y-87996000D02*
X62096250Y-85591250D01*
X60903250Y-84398250D02*
X55696250Y-84398250D01*
X62096250Y-85591250D02*
X60903250Y-84398250D01*
X53196250Y-83096000D02*
X48171000Y-83096000D01*
X47736250Y-82661250D02*
X47736250Y-81788000D01*
X48171000Y-83096000D02*
X47736250Y-82661250D01*
X41287500Y-68000000D02*
X41287500Y-69354500D01*
X41287500Y-69354500D02*
X42926000Y-70993000D01*
X42926000Y-70993000D02*
X42926000Y-80772000D01*
X45250000Y-83096000D02*
X48171000Y-83096000D01*
X42926000Y-80772000D02*
X45250000Y-83096000D01*
X68040250Y-76597000D02*
X67294000Y-76597000D01*
X65595000Y-78296000D02*
X64596250Y-78296000D01*
X67294000Y-76597000D02*
X65595000Y-78296000D01*
X57296250Y-75203250D02*
X57296250Y-75311000D01*
X56007000Y-73914000D02*
X57296250Y-75203250D01*
X53086000Y-73914000D02*
X56007000Y-73914000D01*
X52213000Y-73041000D02*
X53086000Y-73914000D01*
X51403250Y-73041000D02*
X52213000Y-73041000D01*
X52054000Y-88249000D02*
X49403000Y-88249000D01*
X53721000Y-89916000D02*
X52054000Y-88249000D01*
X54991000Y-89916000D02*
X53721000Y-89916000D01*
X55696250Y-89210750D02*
X54991000Y-89916000D01*
X55696250Y-87996000D02*
X55696250Y-89210750D01*
X68199000Y-88453000D02*
X68199000Y-90805000D01*
X68199000Y-90805000D02*
X65024000Y-93980000D01*
X65024000Y-93980000D02*
X64008000Y-93980000D01*
X62595250Y-92567250D02*
X62595250Y-91440000D01*
X64008000Y-93980000D02*
X62595250Y-92567250D01*
X62096250Y-87996000D02*
X62096250Y-89655250D01*
X62595250Y-90154250D02*
X62595250Y-91440000D01*
X62096250Y-89655250D02*
X62595250Y-90154250D01*
X64596250Y-78296000D02*
X62420000Y-78296000D01*
X60903250Y-79812750D02*
X60903250Y-84398250D01*
X62420000Y-78296000D02*
X60903250Y-79812750D01*
X57296250Y-76596000D02*
X57296250Y-77743250D01*
X59365750Y-79812750D02*
X60903250Y-79812750D01*
X57296250Y-77743250D02*
X59365750Y-79812750D01*
X35384001Y-97357845D02*
X34238845Y-97357845D01*
X34238845Y-97357845D02*
X33401000Y-96520000D01*
X33401000Y-96520000D02*
X33401000Y-92075000D01*
X37227000Y-88249000D02*
X49403000Y-88249000D01*
X33401000Y-92075000D02*
X37227000Y-88249000D01*
D26*
X58096250Y-76596000D02*
X58096250Y-73209250D01*
X58096250Y-73209250D02*
X56134000Y-71247000D01*
X56134000Y-71247000D02*
X56134000Y-69088000D01*
X56730000Y-68492000D02*
X57415250Y-68492000D01*
X56134000Y-69088000D02*
X56730000Y-68492000D01*
X57265250Y-68342000D02*
X57415250Y-68492000D01*
X54324250Y-68342000D02*
X57265250Y-68342000D01*
X53196250Y-82296000D02*
X51689000Y-82296000D01*
X51181000Y-81788000D02*
X49736250Y-81788000D01*
X51689000Y-82296000D02*
X51181000Y-81788000D01*
D27*
X62896250Y-87996000D02*
X62896250Y-89058250D01*
X64595250Y-90757250D02*
X64595250Y-91440000D01*
X62896250Y-89058250D02*
X64595250Y-90757250D01*
X53196250Y-81496000D02*
X51905000Y-81496000D01*
X51905000Y-81496000D02*
X51308000Y-80899000D01*
X53171250Y-85471000D02*
X53196250Y-85496000D01*
X51308000Y-85471000D02*
X53171250Y-85471000D01*
X50530000Y-86249000D02*
X51308000Y-85471000D01*
X49403000Y-86249000D02*
X50530000Y-86249000D01*
X54896250Y-88994750D02*
X54896250Y-87996000D01*
X36633000Y-80575000D02*
X34925000Y-80575000D01*
X47863000Y-85725000D02*
X48387000Y-86249000D01*
X41783000Y-85725000D02*
X47863000Y-85725000D01*
X49403000Y-86249000D02*
X48387000Y-86249000D01*
X41783000Y-85725000D02*
X36633000Y-80575000D01*
X66920000Y-78597000D02*
X66421000Y-79096000D01*
X68040250Y-78597000D02*
X66920000Y-78597000D01*
X64596250Y-79096000D02*
X66421000Y-79096000D01*
X56496250Y-75419250D02*
X56496250Y-76596000D01*
X55626000Y-74549000D02*
X56496250Y-75419250D01*
X52832000Y-74549000D02*
X55626000Y-74549000D01*
X51403250Y-75041000D02*
X52340000Y-75041000D01*
X52340000Y-75041000D02*
X52832000Y-74549000D01*
X51403250Y-75041000D02*
X50657000Y-75041000D01*
X48707000Y-73091000D02*
X47974250Y-73091000D01*
X49784000Y-73406000D02*
X49784000Y-74168000D01*
X50657000Y-75041000D02*
X49784000Y-74168000D01*
X49784000Y-74168000D02*
X48707000Y-73091000D01*
X51308000Y-85471000D02*
X51308000Y-86487000D01*
X51308000Y-86487000D02*
X54102000Y-89281000D01*
X54610000Y-89281000D02*
X54896250Y-88994750D01*
X54102000Y-89281000D02*
X54610000Y-89281000D01*
X68040250Y-78597000D02*
X69707000Y-78597000D01*
X69707000Y-78597000D02*
X69723000Y-78613000D01*
X64595250Y-91440000D02*
X66167000Y-91440000D01*
D26*
X88200500Y-73087500D02*
X87312500Y-73087500D01*
X89154000Y-74041000D02*
X88200500Y-73087500D01*
X104521000Y-74041000D02*
X89154000Y-74041000D01*
X106362500Y-73087500D02*
X105474500Y-73087500D01*
X105474500Y-73087500D02*
X104521000Y-74041000D01*
X64596250Y-81496000D02*
X65621000Y-81496000D01*
X65621000Y-81496000D02*
X66040000Y-81915000D01*
X78485000Y-81915000D02*
X87312500Y-73087500D01*
X66040000Y-81915000D02*
X78485000Y-81915000D01*
X84462500Y-66937500D02*
X87312500Y-69787500D01*
X81875000Y-66937500D02*
X84462500Y-66937500D01*
X103512500Y-66937500D02*
X106362500Y-69787500D01*
X100925000Y-66937500D02*
X103512500Y-66937500D01*
X106362500Y-92137500D02*
X105474500Y-92137500D01*
X105474500Y-92137500D02*
X104521000Y-93091000D01*
X104521000Y-93091000D02*
X89154000Y-93091000D01*
X88200500Y-92137500D02*
X87312500Y-92137500D01*
X89154000Y-93091000D02*
X88200500Y-92137500D01*
X86424500Y-92137500D02*
X85471000Y-93091000D01*
X85471000Y-93091000D02*
X74676000Y-93091000D01*
X87312500Y-92137500D02*
X86424500Y-92137500D01*
X64596250Y-83896000D02*
X65583000Y-83896000D01*
X65583000Y-83896000D02*
X66040000Y-83439000D01*
X66040000Y-83439000D02*
X70358000Y-83439000D01*
X72771000Y-85852000D02*
X72771000Y-91186000D01*
X70358000Y-83439000D02*
X72771000Y-85852000D01*
X74676000Y-93091000D02*
X72771000Y-91186000D01*
X84462500Y-85987500D02*
X87312500Y-88837500D01*
X81875000Y-85987500D02*
X84462500Y-85987500D01*
X103512500Y-85987500D02*
X106362500Y-88837500D01*
X100925000Y-85987500D02*
X103512500Y-85987500D01*
D27*
X34925000Y-78175000D02*
X34925000Y-72644000D01*
X38087500Y-69481500D02*
X38087500Y-68000000D01*
X34925000Y-72644000D02*
X38087500Y-69481500D01*
D26*
X64596250Y-83096000D02*
X65621000Y-83096000D01*
X65621000Y-83096000D02*
X65786000Y-82931000D01*
X70548500Y-82931000D02*
X75565000Y-87947500D01*
X65786000Y-82931000D02*
X70548500Y-82931000D01*
X64596250Y-82296000D02*
X65659000Y-82296000D01*
X65659000Y-82296000D02*
X65786000Y-82423000D01*
X89090500Y-82423000D02*
X94615000Y-87947500D01*
X65786000Y-82423000D02*
X89090500Y-82423000D01*
X55696250Y-76596000D02*
X55696250Y-75508250D01*
X55696250Y-75508250D02*
X55372000Y-75184000D01*
X55372000Y-75184000D02*
X53340000Y-75184000D01*
X53340000Y-75184000D02*
X52324000Y-76200000D01*
X52324000Y-76200000D02*
X50165000Y-76200000D01*
X48956000Y-74991000D02*
X47974250Y-74991000D01*
X50165000Y-76200000D02*
X48956000Y-74991000D01*
X41584001Y-93657845D02*
X43492845Y-93657845D01*
X43492845Y-93657845D02*
X43561000Y-93726000D01*
X47913250Y-74930000D02*
X47974250Y-74991000D01*
X46355000Y-74930000D02*
X47913250Y-74930000D01*
X52070000Y-83896000D02*
X53196250Y-83896000D01*
X51892000Y-84074000D02*
X52070000Y-83896000D01*
X43434000Y-84074000D02*
X51892000Y-84074000D01*
X39497000Y-80137000D02*
X43434000Y-84074000D01*
X39497000Y-76261000D02*
X39497000Y-80137000D01*
X40894000Y-74864000D02*
X39497000Y-76261000D01*
X39687500Y-71757500D02*
X40894000Y-72964000D01*
X39687500Y-69469000D02*
X39624000Y-69469000D01*
X39687500Y-68000000D02*
X39687500Y-69469000D01*
X39624000Y-69469000D02*
X39497000Y-69596000D01*
X39497000Y-71567000D02*
X39687500Y-71757500D01*
X39497000Y-69596000D02*
X39497000Y-71567000D01*
X38674000Y-71882000D02*
X37592000Y-72964000D01*
X38989000Y-71567000D02*
X38674000Y-71882000D01*
X38989000Y-69570500D02*
X38989000Y-71567000D01*
X38887500Y-69469000D02*
X38989000Y-69570500D01*
X38887500Y-68000000D02*
X38887500Y-69469000D01*
X52070000Y-84696000D02*
X53196250Y-84696000D01*
X51956000Y-84582000D02*
X52070000Y-84696000D01*
X43116500Y-84582000D02*
X51956000Y-84582000D01*
X38989000Y-80454500D02*
X43116500Y-84582000D01*
X38989000Y-76261000D02*
X38989000Y-80454500D01*
X37592000Y-74864000D02*
X38989000Y-76261000D01*
X64596250Y-86296000D02*
X66230000Y-86296000D01*
X66487000Y-86553000D02*
X68199000Y-86553000D01*
X66230000Y-86296000D02*
X66487000Y-86553000D01*
G36*
X41873987Y-62708889D02*
G01*
X41852500Y-62927050D01*
X41852500Y-64072949D01*
X41873987Y-64291110D01*
X41958901Y-64571033D01*
X42096794Y-64829013D01*
X42282366Y-65055134D01*
X42508486Y-65240706D01*
X42766466Y-65378599D01*
X43046389Y-65463513D01*
X43337500Y-65492185D01*
X43529250Y-65473299D01*
X43529250Y-66026701D01*
X43337500Y-66007815D01*
X43046390Y-66036487D01*
X42766467Y-66121401D01*
X42508487Y-66259294D01*
X42282367Y-66444866D01*
X42127623Y-66633421D01*
X42071906Y-66526366D01*
X41993623Y-66428807D01*
X41897811Y-66348396D01*
X41788152Y-66288221D01*
X41668861Y-66250596D01*
X41569250Y-66240000D01*
X41410500Y-66398750D01*
X41410500Y-67873000D01*
X41434500Y-67873000D01*
X41434500Y-68127000D01*
X41410500Y-68127000D01*
X41410500Y-68147000D01*
X41375572Y-68147000D01*
X41375572Y-66875000D01*
X41363312Y-66750518D01*
X41327002Y-66630820D01*
X41268037Y-66520506D01*
X41188685Y-66423815D01*
X41164500Y-66403967D01*
X41164500Y-66398750D01*
X41005750Y-66240000D01*
X40906139Y-66250596D01*
X40886766Y-66256706D01*
X40861982Y-66249188D01*
X40737500Y-66236928D01*
X40237500Y-66236928D01*
X40113018Y-66249188D01*
X40087500Y-66256929D01*
X40061982Y-66249188D01*
X39937500Y-66236928D01*
X39437500Y-66236928D01*
X39313018Y-66249188D01*
X39287500Y-66256929D01*
X39261982Y-66249188D01*
X39137500Y-66236928D01*
X38637500Y-66236928D01*
X38513018Y-66249188D01*
X38487500Y-66256929D01*
X38461982Y-66249188D01*
X38337500Y-66236928D01*
X37837500Y-66236928D01*
X37713018Y-66249188D01*
X37593320Y-66285498D01*
X37483006Y-66344463D01*
X37386315Y-66423815D01*
X37306963Y-66520506D01*
X37247998Y-66630820D01*
X37247254Y-66633271D01*
X37092634Y-66444866D01*
X36866514Y-66259294D01*
X36608534Y-66121401D01*
X36328611Y-66036487D01*
X36037500Y-66007815D01*
X35845750Y-66026701D01*
X35845750Y-65473299D01*
X36037500Y-65492185D01*
X36328610Y-65463513D01*
X36608533Y-65378599D01*
X36866513Y-65240706D01*
X37092634Y-65055134D01*
X37278206Y-64829014D01*
X37416099Y-64571034D01*
X37501013Y-64291111D01*
X37522500Y-64072950D01*
X37522500Y-62927050D01*
X37501013Y-62708889D01*
X37474807Y-62622500D01*
X41900193Y-62622500D01*
X41873987Y-62708889D01*
X41873987Y-62708889D01*
G37*
X41873987Y-62708889D02*
X41852500Y-62927050D01*
X41852500Y-64072949D01*
X41873987Y-64291110D01*
X41958901Y-64571033D01*
X42096794Y-64829013D01*
X42282366Y-65055134D01*
X42508486Y-65240706D01*
X42766466Y-65378599D01*
X43046389Y-65463513D01*
X43337500Y-65492185D01*
X43529250Y-65473299D01*
X43529250Y-66026701D01*
X43337500Y-66007815D01*
X43046390Y-66036487D01*
X42766467Y-66121401D01*
X42508487Y-66259294D01*
X42282367Y-66444866D01*
X42127623Y-66633421D01*
X42071906Y-66526366D01*
X41993623Y-66428807D01*
X41897811Y-66348396D01*
X41788152Y-66288221D01*
X41668861Y-66250596D01*
X41569250Y-66240000D01*
X41410500Y-66398750D01*
X41410500Y-67873000D01*
X41434500Y-67873000D01*
X41434500Y-68127000D01*
X41410500Y-68127000D01*
X41410500Y-68147000D01*
X41375572Y-68147000D01*
X41375572Y-66875000D01*
X41363312Y-66750518D01*
X41327002Y-66630820D01*
X41268037Y-66520506D01*
X41188685Y-66423815D01*
X41164500Y-66403967D01*
X41164500Y-66398750D01*
X41005750Y-66240000D01*
X40906139Y-66250596D01*
X40886766Y-66256706D01*
X40861982Y-66249188D01*
X40737500Y-66236928D01*
X40237500Y-66236928D01*
X40113018Y-66249188D01*
X40087500Y-66256929D01*
X40061982Y-66249188D01*
X39937500Y-66236928D01*
X39437500Y-66236928D01*
X39313018Y-66249188D01*
X39287500Y-66256929D01*
X39261982Y-66249188D01*
X39137500Y-66236928D01*
X38637500Y-66236928D01*
X38513018Y-66249188D01*
X38487500Y-66256929D01*
X38461982Y-66249188D01*
X38337500Y-66236928D01*
X37837500Y-66236928D01*
X37713018Y-66249188D01*
X37593320Y-66285498D01*
X37483006Y-66344463D01*
X37386315Y-66423815D01*
X37306963Y-66520506D01*
X37247998Y-66630820D01*
X37247254Y-66633271D01*
X37092634Y-66444866D01*
X36866514Y-66259294D01*
X36608534Y-66121401D01*
X36328611Y-66036487D01*
X36037500Y-66007815D01*
X35845750Y-66026701D01*
X35845750Y-65473299D01*
X36037500Y-65492185D01*
X36328610Y-65463513D01*
X36608533Y-65378599D01*
X36866513Y-65240706D01*
X37092634Y-65055134D01*
X37278206Y-64829014D01*
X37416099Y-64571034D01*
X37501013Y-64291111D01*
X37522500Y-64072950D01*
X37522500Y-62927050D01*
X37501013Y-62708889D01*
X37474807Y-62622500D01*
X41900193Y-62622500D01*
X41873987Y-62708889D01*
G36*
X66548000Y-75279250D02*
G01*
X63489745Y-75279250D01*
X63447180Y-75256498D01*
X63327482Y-75220188D01*
X63203000Y-75207928D01*
X62653000Y-75207928D01*
X62528518Y-75220188D01*
X62528000Y-75220345D01*
X62527482Y-75220188D01*
X62403000Y-75207928D01*
X61853000Y-75207928D01*
X61728518Y-75220188D01*
X61728000Y-75220345D01*
X61727482Y-75220188D01*
X61603000Y-75207928D01*
X61053000Y-75207928D01*
X60928518Y-75220188D01*
X60928000Y-75220345D01*
X60927482Y-75220188D01*
X60803000Y-75207928D01*
X60253000Y-75207928D01*
X60128518Y-75220188D01*
X60128000Y-75220345D01*
X60127482Y-75220188D01*
X60003000Y-75207928D01*
X59658250Y-75207928D01*
X59658250Y-73467630D01*
X60127596Y-72998284D01*
X60156672Y-72974422D01*
X60217107Y-72900781D01*
X60251895Y-72858393D01*
X60291735Y-72783857D01*
X60322652Y-72726015D01*
X60366224Y-72582378D01*
X60377250Y-72470426D01*
X60377250Y-72470423D01*
X60380936Y-72433000D01*
X60377250Y-72395577D01*
X60377250Y-71427093D01*
X60471482Y-71417812D01*
X60591180Y-71381502D01*
X60701494Y-71322537D01*
X60798185Y-71243185D01*
X60877537Y-71146494D01*
X60900251Y-71104000D01*
X61628273Y-71104000D01*
X61677713Y-71196494D01*
X61757065Y-71293185D01*
X61853756Y-71372537D01*
X61964070Y-71431502D01*
X62083768Y-71467812D01*
X62208250Y-71480072D01*
X63458250Y-71480072D01*
X63582732Y-71467812D01*
X63702430Y-71431502D01*
X63812744Y-71372537D01*
X63909435Y-71293185D01*
X63988787Y-71196494D01*
X64047752Y-71086180D01*
X64084062Y-70966482D01*
X64096322Y-70842000D01*
X64096322Y-69842000D01*
X64084062Y-69717518D01*
X64047752Y-69597820D01*
X63988787Y-69487506D01*
X63909435Y-69390815D01*
X63849954Y-69342000D01*
X63909435Y-69293185D01*
X63988787Y-69196494D01*
X64047752Y-69086180D01*
X64084062Y-68966482D01*
X64096322Y-68842000D01*
X64093250Y-68627750D01*
X63934500Y-68469000D01*
X62960250Y-68469000D01*
X62960250Y-68489000D01*
X62706250Y-68489000D01*
X62706250Y-68469000D01*
X61732000Y-68469000D01*
X61573250Y-68627750D01*
X61570178Y-68842000D01*
X61582438Y-68966482D01*
X61618748Y-69086180D01*
X61677713Y-69196494D01*
X61757065Y-69293185D01*
X61816546Y-69342000D01*
X61757065Y-69390815D01*
X61677713Y-69487506D01*
X61628273Y-69580000D01*
X60983890Y-69580000D01*
X60972812Y-69467518D01*
X60936502Y-69347820D01*
X60933391Y-69342000D01*
X60936502Y-69336180D01*
X60972812Y-69216482D01*
X60985072Y-69092000D01*
X60982000Y-68777750D01*
X60823250Y-68619000D01*
X59774000Y-68619000D01*
X59774000Y-68639000D01*
X59520000Y-68639000D01*
X59520000Y-68619000D01*
X59500000Y-68619000D01*
X59500000Y-68365000D01*
X59520000Y-68365000D01*
X59520000Y-67415750D01*
X59774000Y-67415750D01*
X59774000Y-68365000D01*
X60823250Y-68365000D01*
X60982000Y-68206250D01*
X60985072Y-67892000D01*
X60980148Y-67842000D01*
X61570178Y-67842000D01*
X61573250Y-68056250D01*
X61732000Y-68215000D01*
X62706250Y-68215000D01*
X62706250Y-67365750D01*
X62960250Y-67365750D01*
X62960250Y-68215000D01*
X63934500Y-68215000D01*
X64093250Y-68056250D01*
X64096322Y-67842000D01*
X64084062Y-67717518D01*
X64047752Y-67597820D01*
X63988787Y-67487506D01*
X63909435Y-67390815D01*
X63812744Y-67311463D01*
X63702430Y-67252498D01*
X63582732Y-67216188D01*
X63458250Y-67203928D01*
X63119000Y-67207000D01*
X62960250Y-67365750D01*
X62706250Y-67365750D01*
X62547500Y-67207000D01*
X62208250Y-67203928D01*
X62083768Y-67216188D01*
X61964070Y-67252498D01*
X61853756Y-67311463D01*
X61757065Y-67390815D01*
X61677713Y-67487506D01*
X61618748Y-67597820D01*
X61582438Y-67717518D01*
X61570178Y-67842000D01*
X60980148Y-67842000D01*
X60972812Y-67767518D01*
X60936502Y-67647820D01*
X60877537Y-67537506D01*
X60798185Y-67440815D01*
X60701494Y-67361463D01*
X60591180Y-67302498D01*
X60471482Y-67266188D01*
X60347000Y-67253928D01*
X59932750Y-67257000D01*
X59774000Y-67415750D01*
X59520000Y-67415750D01*
X59361250Y-67257000D01*
X58947000Y-67253928D01*
X58822518Y-67266188D01*
X58702820Y-67302498D01*
X58592506Y-67361463D01*
X58547000Y-67398809D01*
X58501494Y-67361463D01*
X58391180Y-67302498D01*
X58271482Y-67266188D01*
X58147000Y-67253928D01*
X56747000Y-67253928D01*
X56622518Y-67266188D01*
X56502820Y-67302498D01*
X56392506Y-67361463D01*
X56295815Y-67440815D01*
X56216463Y-67537506D01*
X56193749Y-67580000D01*
X55529227Y-67580000D01*
X55479787Y-67487506D01*
X55400435Y-67390815D01*
X55303744Y-67311463D01*
X55193430Y-67252498D01*
X55073732Y-67216188D01*
X54949250Y-67203928D01*
X53699250Y-67203928D01*
X53574768Y-67216188D01*
X53455070Y-67252498D01*
X53344756Y-67311463D01*
X53248065Y-67390815D01*
X53168713Y-67487506D01*
X53109748Y-67597820D01*
X53073438Y-67717518D01*
X53061178Y-67842000D01*
X53061178Y-68842000D01*
X53073438Y-68966482D01*
X53109748Y-69086180D01*
X53168713Y-69196494D01*
X53248065Y-69293185D01*
X53307546Y-69342000D01*
X53248065Y-69390815D01*
X53168713Y-69487506D01*
X53109748Y-69597820D01*
X53073438Y-69717518D01*
X53061178Y-69842000D01*
X53064250Y-70056250D01*
X53223000Y-70215000D01*
X54197250Y-70215000D01*
X54197250Y-70195000D01*
X54451250Y-70195000D01*
X54451250Y-70215000D01*
X54471250Y-70215000D01*
X54471250Y-70469000D01*
X54451250Y-70469000D01*
X54451250Y-71318250D01*
X54610000Y-71477000D01*
X54949250Y-71480072D01*
X55073732Y-71467812D01*
X55193430Y-71431502D01*
X55303744Y-71372537D01*
X55374925Y-71314121D01*
X55383026Y-71396377D01*
X55426598Y-71540014D01*
X55426599Y-71540015D01*
X55497355Y-71672392D01*
X55536983Y-71720678D01*
X55592578Y-71788422D01*
X55621654Y-71812284D01*
X57334251Y-73524881D01*
X57334250Y-75279250D01*
X57311956Y-75279250D01*
X57309806Y-75257424D01*
X57262603Y-75101816D01*
X57185949Y-74958408D01*
X57082791Y-74832709D01*
X57051290Y-74806857D01*
X56238398Y-73993966D01*
X56212541Y-73962459D01*
X56086842Y-73859301D01*
X55943434Y-73782647D01*
X55787826Y-73735444D01*
X55666553Y-73723500D01*
X55666550Y-73723500D01*
X55626000Y-73719506D01*
X55585450Y-73723500D01*
X52872550Y-73723500D01*
X52831999Y-73719506D01*
X52791449Y-73723500D01*
X52791447Y-73723500D01*
X52670174Y-73735444D01*
X52629056Y-73747917D01*
X52654062Y-73665482D01*
X52666322Y-73541000D01*
X52663250Y-73326750D01*
X52504500Y-73168000D01*
X51530250Y-73168000D01*
X51530250Y-73188000D01*
X51276250Y-73188000D01*
X51276250Y-73168000D01*
X51256250Y-73168000D01*
X51256250Y-72914000D01*
X51276250Y-72914000D01*
X51276250Y-72064750D01*
X51530250Y-72064750D01*
X51530250Y-72914000D01*
X52504500Y-72914000D01*
X52663250Y-72755250D01*
X52666322Y-72541000D01*
X52654062Y-72416518D01*
X52617752Y-72296820D01*
X52558787Y-72186506D01*
X52479435Y-72089815D01*
X52382744Y-72010463D01*
X52272430Y-71951498D01*
X52152732Y-71915188D01*
X52028250Y-71902928D01*
X51689000Y-71906000D01*
X51530250Y-72064750D01*
X51276250Y-72064750D01*
X51117500Y-71906000D01*
X50927000Y-71904275D01*
X50927000Y-70842000D01*
X53061178Y-70842000D01*
X53073438Y-70966482D01*
X53109748Y-71086180D01*
X53168713Y-71196494D01*
X53248065Y-71293185D01*
X53344756Y-71372537D01*
X53455070Y-71431502D01*
X53574768Y-71467812D01*
X53699250Y-71480072D01*
X54038500Y-71477000D01*
X54197250Y-71318250D01*
X54197250Y-70469000D01*
X53223000Y-70469000D01*
X53064250Y-70627750D01*
X53061178Y-70842000D01*
X50927000Y-70842000D01*
X50927000Y-65214500D01*
X66548000Y-65214500D01*
X66548000Y-75279250D01*
X66548000Y-75279250D01*
G37*
X66548000Y-75279250D02*
X63489745Y-75279250D01*
X63447180Y-75256498D01*
X63327482Y-75220188D01*
X63203000Y-75207928D01*
X62653000Y-75207928D01*
X62528518Y-75220188D01*
X62528000Y-75220345D01*
X62527482Y-75220188D01*
X62403000Y-75207928D01*
X61853000Y-75207928D01*
X61728518Y-75220188D01*
X61728000Y-75220345D01*
X61727482Y-75220188D01*
X61603000Y-75207928D01*
X61053000Y-75207928D01*
X60928518Y-75220188D01*
X60928000Y-75220345D01*
X60927482Y-75220188D01*
X60803000Y-75207928D01*
X60253000Y-75207928D01*
X60128518Y-75220188D01*
X60128000Y-75220345D01*
X60127482Y-75220188D01*
X60003000Y-75207928D01*
X59658250Y-75207928D01*
X59658250Y-73467630D01*
X60127596Y-72998284D01*
X60156672Y-72974422D01*
X60217107Y-72900781D01*
X60251895Y-72858393D01*
X60291735Y-72783857D01*
X60322652Y-72726015D01*
X60366224Y-72582378D01*
X60377250Y-72470426D01*
X60377250Y-72470423D01*
X60380936Y-72433000D01*
X60377250Y-72395577D01*
X60377250Y-71427093D01*
X60471482Y-71417812D01*
X60591180Y-71381502D01*
X60701494Y-71322537D01*
X60798185Y-71243185D01*
X60877537Y-71146494D01*
X60900251Y-71104000D01*
X61628273Y-71104000D01*
X61677713Y-71196494D01*
X61757065Y-71293185D01*
X61853756Y-71372537D01*
X61964070Y-71431502D01*
X62083768Y-71467812D01*
X62208250Y-71480072D01*
X63458250Y-71480072D01*
X63582732Y-71467812D01*
X63702430Y-71431502D01*
X63812744Y-71372537D01*
X63909435Y-71293185D01*
X63988787Y-71196494D01*
X64047752Y-71086180D01*
X64084062Y-70966482D01*
X64096322Y-70842000D01*
X64096322Y-69842000D01*
X64084062Y-69717518D01*
X64047752Y-69597820D01*
X63988787Y-69487506D01*
X63909435Y-69390815D01*
X63849954Y-69342000D01*
X63909435Y-69293185D01*
X63988787Y-69196494D01*
X64047752Y-69086180D01*
X64084062Y-68966482D01*
X64096322Y-68842000D01*
X64093250Y-68627750D01*
X63934500Y-68469000D01*
X62960250Y-68469000D01*
X62960250Y-68489000D01*
X62706250Y-68489000D01*
X62706250Y-68469000D01*
X61732000Y-68469000D01*
X61573250Y-68627750D01*
X61570178Y-68842000D01*
X61582438Y-68966482D01*
X61618748Y-69086180D01*
X61677713Y-69196494D01*
X61757065Y-69293185D01*
X61816546Y-69342000D01*
X61757065Y-69390815D01*
X61677713Y-69487506D01*
X61628273Y-69580000D01*
X60983890Y-69580000D01*
X60972812Y-69467518D01*
X60936502Y-69347820D01*
X60933391Y-69342000D01*
X60936502Y-69336180D01*
X60972812Y-69216482D01*
X60985072Y-69092000D01*
X60982000Y-68777750D01*
X60823250Y-68619000D01*
X59774000Y-68619000D01*
X59774000Y-68639000D01*
X59520000Y-68639000D01*
X59520000Y-68619000D01*
X59500000Y-68619000D01*
X59500000Y-68365000D01*
X59520000Y-68365000D01*
X59520000Y-67415750D01*
X59774000Y-67415750D01*
X59774000Y-68365000D01*
X60823250Y-68365000D01*
X60982000Y-68206250D01*
X60985072Y-67892000D01*
X60980148Y-67842000D01*
X61570178Y-67842000D01*
X61573250Y-68056250D01*
X61732000Y-68215000D01*
X62706250Y-68215000D01*
X62706250Y-67365750D01*
X62960250Y-67365750D01*
X62960250Y-68215000D01*
X63934500Y-68215000D01*
X64093250Y-68056250D01*
X64096322Y-67842000D01*
X64084062Y-67717518D01*
X64047752Y-67597820D01*
X63988787Y-67487506D01*
X63909435Y-67390815D01*
X63812744Y-67311463D01*
X63702430Y-67252498D01*
X63582732Y-67216188D01*
X63458250Y-67203928D01*
X63119000Y-67207000D01*
X62960250Y-67365750D01*
X62706250Y-67365750D01*
X62547500Y-67207000D01*
X62208250Y-67203928D01*
X62083768Y-67216188D01*
X61964070Y-67252498D01*
X61853756Y-67311463D01*
X61757065Y-67390815D01*
X61677713Y-67487506D01*
X61618748Y-67597820D01*
X61582438Y-67717518D01*
X61570178Y-67842000D01*
X60980148Y-67842000D01*
X60972812Y-67767518D01*
X60936502Y-67647820D01*
X60877537Y-67537506D01*
X60798185Y-67440815D01*
X60701494Y-67361463D01*
X60591180Y-67302498D01*
X60471482Y-67266188D01*
X60347000Y-67253928D01*
X59932750Y-67257000D01*
X59774000Y-67415750D01*
X59520000Y-67415750D01*
X59361250Y-67257000D01*
X58947000Y-67253928D01*
X58822518Y-67266188D01*
X58702820Y-67302498D01*
X58592506Y-67361463D01*
X58547000Y-67398809D01*
X58501494Y-67361463D01*
X58391180Y-67302498D01*
X58271482Y-67266188D01*
X58147000Y-67253928D01*
X56747000Y-67253928D01*
X56622518Y-67266188D01*
X56502820Y-67302498D01*
X56392506Y-67361463D01*
X56295815Y-67440815D01*
X56216463Y-67537506D01*
X56193749Y-67580000D01*
X55529227Y-67580000D01*
X55479787Y-67487506D01*
X55400435Y-67390815D01*
X55303744Y-67311463D01*
X55193430Y-67252498D01*
X55073732Y-67216188D01*
X54949250Y-67203928D01*
X53699250Y-67203928D01*
X53574768Y-67216188D01*
X53455070Y-67252498D01*
X53344756Y-67311463D01*
X53248065Y-67390815D01*
X53168713Y-67487506D01*
X53109748Y-67597820D01*
X53073438Y-67717518D01*
X53061178Y-67842000D01*
X53061178Y-68842000D01*
X53073438Y-68966482D01*
X53109748Y-69086180D01*
X53168713Y-69196494D01*
X53248065Y-69293185D01*
X53307546Y-69342000D01*
X53248065Y-69390815D01*
X53168713Y-69487506D01*
X53109748Y-69597820D01*
X53073438Y-69717518D01*
X53061178Y-69842000D01*
X53064250Y-70056250D01*
X53223000Y-70215000D01*
X54197250Y-70215000D01*
X54197250Y-70195000D01*
X54451250Y-70195000D01*
X54451250Y-70215000D01*
X54471250Y-70215000D01*
X54471250Y-70469000D01*
X54451250Y-70469000D01*
X54451250Y-71318250D01*
X54610000Y-71477000D01*
X54949250Y-71480072D01*
X55073732Y-71467812D01*
X55193430Y-71431502D01*
X55303744Y-71372537D01*
X55374925Y-71314121D01*
X55383026Y-71396377D01*
X55426598Y-71540014D01*
X55426599Y-71540015D01*
X55497355Y-71672392D01*
X55536983Y-71720678D01*
X55592578Y-71788422D01*
X55621654Y-71812284D01*
X57334251Y-73524881D01*
X57334250Y-75279250D01*
X57311956Y-75279250D01*
X57309806Y-75257424D01*
X57262603Y-75101816D01*
X57185949Y-74958408D01*
X57082791Y-74832709D01*
X57051290Y-74806857D01*
X56238398Y-73993966D01*
X56212541Y-73962459D01*
X56086842Y-73859301D01*
X55943434Y-73782647D01*
X55787826Y-73735444D01*
X55666553Y-73723500D01*
X55666550Y-73723500D01*
X55626000Y-73719506D01*
X55585450Y-73723500D01*
X52872550Y-73723500D01*
X52831999Y-73719506D01*
X52791449Y-73723500D01*
X52791447Y-73723500D01*
X52670174Y-73735444D01*
X52629056Y-73747917D01*
X52654062Y-73665482D01*
X52666322Y-73541000D01*
X52663250Y-73326750D01*
X52504500Y-73168000D01*
X51530250Y-73168000D01*
X51530250Y-73188000D01*
X51276250Y-73188000D01*
X51276250Y-73168000D01*
X51256250Y-73168000D01*
X51256250Y-72914000D01*
X51276250Y-72914000D01*
X51276250Y-72064750D01*
X51530250Y-72064750D01*
X51530250Y-72914000D01*
X52504500Y-72914000D01*
X52663250Y-72755250D01*
X52666322Y-72541000D01*
X52654062Y-72416518D01*
X52617752Y-72296820D01*
X52558787Y-72186506D01*
X52479435Y-72089815D01*
X52382744Y-72010463D01*
X52272430Y-71951498D01*
X52152732Y-71915188D01*
X52028250Y-71902928D01*
X51689000Y-71906000D01*
X51530250Y-72064750D01*
X51276250Y-72064750D01*
X51117500Y-71906000D01*
X50927000Y-71904275D01*
X50927000Y-70842000D01*
X53061178Y-70842000D01*
X53073438Y-70966482D01*
X53109748Y-71086180D01*
X53168713Y-71196494D01*
X53248065Y-71293185D01*
X53344756Y-71372537D01*
X53455070Y-71431502D01*
X53574768Y-71467812D01*
X53699250Y-71480072D01*
X54038500Y-71477000D01*
X54197250Y-71318250D01*
X54197250Y-70469000D01*
X53223000Y-70469000D01*
X53064250Y-70627750D01*
X53061178Y-70842000D01*
X50927000Y-70842000D01*
X50927000Y-65214500D01*
X66548000Y-65214500D01*
X66548000Y-75279250D01*
G36*
X57574000Y-70065000D02*
G01*
X57594000Y-70065000D01*
X57594000Y-70319000D01*
X57574000Y-70319000D01*
X57574000Y-71268250D01*
X57732750Y-71427000D01*
X58147000Y-71430072D01*
X58271482Y-71417812D01*
X58391180Y-71381502D01*
X58501494Y-71322537D01*
X58547000Y-71285191D01*
X58592506Y-71322537D01*
X58702820Y-71381502D01*
X58822518Y-71417812D01*
X58853251Y-71420839D01*
X58853251Y-72117369D01*
X58467625Y-72502995D01*
X57276440Y-71311810D01*
X57320000Y-71268250D01*
X57320000Y-70319000D01*
X57300000Y-70319000D01*
X57300000Y-70065000D01*
X57320000Y-70065000D01*
X57320000Y-70045000D01*
X57574000Y-70045000D01*
X57574000Y-70065000D01*
X57574000Y-70065000D01*
G37*
X57574000Y-70065000D02*
X57594000Y-70065000D01*
X57594000Y-70319000D01*
X57574000Y-70319000D01*
X57574000Y-71268250D01*
X57732750Y-71427000D01*
X58147000Y-71430072D01*
X58271482Y-71417812D01*
X58391180Y-71381502D01*
X58501494Y-71322537D01*
X58547000Y-71285191D01*
X58592506Y-71322537D01*
X58702820Y-71381502D01*
X58822518Y-71417812D01*
X58853251Y-71420839D01*
X58853251Y-72117369D01*
X58467625Y-72502995D01*
X57276440Y-71311810D01*
X57320000Y-71268250D01*
X57320000Y-70319000D01*
X57300000Y-70319000D01*
X57300000Y-70065000D01*
X57320000Y-70065000D01*
X57320000Y-70045000D01*
X57574000Y-70045000D01*
X57574000Y-70065000D01*
G36*
X57613750Y-77981000D02*
G01*
X57727337Y-77971454D01*
X57728518Y-77971812D01*
X57853000Y-77984072D01*
X58403000Y-77984072D01*
X58527482Y-77971812D01*
X58528000Y-77971655D01*
X58528518Y-77971812D01*
X58653000Y-77984072D01*
X59203000Y-77984072D01*
X59327482Y-77971812D01*
X59328000Y-77971655D01*
X59328518Y-77971812D01*
X59453000Y-77984072D01*
X60003000Y-77984072D01*
X60127482Y-77971812D01*
X60128000Y-77971655D01*
X60128518Y-77971812D01*
X60253000Y-77984072D01*
X60803000Y-77984072D01*
X60927482Y-77971812D01*
X60928000Y-77971655D01*
X60928518Y-77971812D01*
X61053000Y-77984072D01*
X61603000Y-77984072D01*
X61727482Y-77971812D01*
X61728000Y-77971655D01*
X61728518Y-77971812D01*
X61853000Y-77984072D01*
X62403000Y-77984072D01*
X62527482Y-77971812D01*
X62528000Y-77971655D01*
X62528518Y-77971812D01*
X62653000Y-77984072D01*
X63203000Y-77984072D01*
X63245552Y-77979881D01*
X63243000Y-78010250D01*
X63373000Y-78140250D01*
X63373000Y-78435389D01*
X63347463Y-78466506D01*
X63335083Y-78489667D01*
X63243000Y-78581750D01*
X63252546Y-78695337D01*
X63252188Y-78696518D01*
X63239928Y-78821000D01*
X63239928Y-79371000D01*
X63252188Y-79495482D01*
X63252345Y-79496000D01*
X63252188Y-79496518D01*
X63239928Y-79621000D01*
X63239928Y-80171000D01*
X63252188Y-80295482D01*
X63252345Y-80296000D01*
X63252188Y-80296518D01*
X63239928Y-80421000D01*
X63239928Y-80971000D01*
X63252188Y-81095482D01*
X63252345Y-81096000D01*
X63252188Y-81096518D01*
X63239928Y-81221000D01*
X63239928Y-81771000D01*
X63252188Y-81895482D01*
X63252345Y-81896000D01*
X63252188Y-81896518D01*
X63239928Y-82021000D01*
X63239928Y-82571000D01*
X63252188Y-82695482D01*
X63252345Y-82696000D01*
X63252188Y-82696518D01*
X63239928Y-82821000D01*
X63239928Y-83371000D01*
X63252188Y-83495482D01*
X63252345Y-83496000D01*
X63252188Y-83496518D01*
X63239928Y-83621000D01*
X63239928Y-84171000D01*
X63252188Y-84295482D01*
X63252345Y-84296000D01*
X63252188Y-84296518D01*
X63239928Y-84421000D01*
X63239928Y-84971000D01*
X63252188Y-85095482D01*
X63252345Y-85096000D01*
X63252188Y-85096518D01*
X63239928Y-85221000D01*
X63239928Y-85771000D01*
X63252188Y-85895482D01*
X63252345Y-85896000D01*
X63252188Y-85896518D01*
X63239928Y-86021000D01*
X63239928Y-86571000D01*
X63243962Y-86611962D01*
X63203000Y-86607928D01*
X62653000Y-86607928D01*
X62528518Y-86620188D01*
X62527337Y-86620546D01*
X62413750Y-86611000D01*
X62321667Y-86703083D01*
X62298506Y-86715463D01*
X62201815Y-86794815D01*
X62128000Y-86884759D01*
X62054185Y-86794815D01*
X61957494Y-86715463D01*
X61934333Y-86703083D01*
X61842250Y-86611000D01*
X61728663Y-86620546D01*
X61727482Y-86620188D01*
X61603000Y-86607928D01*
X61053000Y-86607928D01*
X60928518Y-86620188D01*
X60928000Y-86620345D01*
X60927482Y-86620188D01*
X60803000Y-86607928D01*
X60253000Y-86607928D01*
X60128518Y-86620188D01*
X60128000Y-86620345D01*
X60127482Y-86620188D01*
X60003000Y-86607928D01*
X59453000Y-86607928D01*
X59328518Y-86620188D01*
X59328000Y-86620345D01*
X59327482Y-86620188D01*
X59203000Y-86607928D01*
X58653000Y-86607928D01*
X58528518Y-86620188D01*
X58528000Y-86620345D01*
X58527482Y-86620188D01*
X58403000Y-86607928D01*
X57853000Y-86607928D01*
X57728518Y-86620188D01*
X57728000Y-86620345D01*
X57727482Y-86620188D01*
X57603000Y-86607928D01*
X57053000Y-86607928D01*
X56928518Y-86620188D01*
X56928000Y-86620345D01*
X56927482Y-86620188D01*
X56803000Y-86607928D01*
X56253000Y-86607928D01*
X56128518Y-86620188D01*
X56127337Y-86620546D01*
X56013750Y-86611000D01*
X55921667Y-86703083D01*
X55898506Y-86715463D01*
X55801815Y-86794815D01*
X55728000Y-86884759D01*
X55654185Y-86794815D01*
X55557494Y-86715463D01*
X55534333Y-86703083D01*
X55442250Y-86611000D01*
X55328663Y-86620546D01*
X55327482Y-86620188D01*
X55203000Y-86607928D01*
X54653000Y-86607928D01*
X54612038Y-86611962D01*
X54616072Y-86571000D01*
X54616072Y-86021000D01*
X54603812Y-85896518D01*
X54603655Y-85896000D01*
X54603812Y-85895482D01*
X54616072Y-85771000D01*
X54616072Y-85221000D01*
X54603812Y-85096518D01*
X54603655Y-85096000D01*
X54603812Y-85095482D01*
X54616072Y-84971000D01*
X54616072Y-84421000D01*
X54603812Y-84296518D01*
X54603655Y-84296000D01*
X54603812Y-84295482D01*
X54616072Y-84171000D01*
X54616072Y-83621000D01*
X54603812Y-83496518D01*
X54603454Y-83495337D01*
X54613000Y-83381750D01*
X54520917Y-83289667D01*
X54508537Y-83266506D01*
X54429185Y-83169815D01*
X54339241Y-83096000D01*
X54429185Y-83022185D01*
X54508537Y-82925494D01*
X54520917Y-82902333D01*
X54613000Y-82810250D01*
X54603454Y-82696663D01*
X54603812Y-82695482D01*
X54616072Y-82571000D01*
X54616072Y-82021000D01*
X54603812Y-81896518D01*
X54603655Y-81896000D01*
X54603812Y-81895482D01*
X54616072Y-81771000D01*
X54616072Y-81221000D01*
X54603812Y-81096518D01*
X54603655Y-81096000D01*
X54603812Y-81095482D01*
X54616072Y-80971000D01*
X54616072Y-80421000D01*
X54603812Y-80296518D01*
X54603655Y-80296000D01*
X54603812Y-80295482D01*
X54616072Y-80171000D01*
X54616072Y-79621000D01*
X54603812Y-79496518D01*
X54603655Y-79496000D01*
X54603812Y-79495482D01*
X54616072Y-79371000D01*
X54616072Y-78821000D01*
X54603812Y-78696518D01*
X54603655Y-78696000D01*
X54603812Y-78695482D01*
X54616072Y-78571000D01*
X54616072Y-78021000D01*
X54612038Y-77980038D01*
X54653000Y-77984072D01*
X55203000Y-77984072D01*
X55327482Y-77971812D01*
X55328000Y-77971655D01*
X55328518Y-77971812D01*
X55453000Y-77984072D01*
X56003000Y-77984072D01*
X56127482Y-77971812D01*
X56128000Y-77971655D01*
X56128518Y-77971812D01*
X56253000Y-77984072D01*
X56803000Y-77984072D01*
X56927482Y-77971812D01*
X56928663Y-77971454D01*
X57042250Y-77981000D01*
X57108750Y-77914500D01*
X57547250Y-77914500D01*
X57613750Y-77981000D01*
X57613750Y-77981000D01*
G37*
X57613750Y-77981000D02*
X57727337Y-77971454D01*
X57728518Y-77971812D01*
X57853000Y-77984072D01*
X58403000Y-77984072D01*
X58527482Y-77971812D01*
X58528000Y-77971655D01*
X58528518Y-77971812D01*
X58653000Y-77984072D01*
X59203000Y-77984072D01*
X59327482Y-77971812D01*
X59328000Y-77971655D01*
X59328518Y-77971812D01*
X59453000Y-77984072D01*
X60003000Y-77984072D01*
X60127482Y-77971812D01*
X60128000Y-77971655D01*
X60128518Y-77971812D01*
X60253000Y-77984072D01*
X60803000Y-77984072D01*
X60927482Y-77971812D01*
X60928000Y-77971655D01*
X60928518Y-77971812D01*
X61053000Y-77984072D01*
X61603000Y-77984072D01*
X61727482Y-77971812D01*
X61728000Y-77971655D01*
X61728518Y-77971812D01*
X61853000Y-77984072D01*
X62403000Y-77984072D01*
X62527482Y-77971812D01*
X62528000Y-77971655D01*
X62528518Y-77971812D01*
X62653000Y-77984072D01*
X63203000Y-77984072D01*
X63245552Y-77979881D01*
X63243000Y-78010250D01*
X63373000Y-78140250D01*
X63373000Y-78435389D01*
X63347463Y-78466506D01*
X63335083Y-78489667D01*
X63243000Y-78581750D01*
X63252546Y-78695337D01*
X63252188Y-78696518D01*
X63239928Y-78821000D01*
X63239928Y-79371000D01*
X63252188Y-79495482D01*
X63252345Y-79496000D01*
X63252188Y-79496518D01*
X63239928Y-79621000D01*
X63239928Y-80171000D01*
X63252188Y-80295482D01*
X63252345Y-80296000D01*
X63252188Y-80296518D01*
X63239928Y-80421000D01*
X63239928Y-80971000D01*
X63252188Y-81095482D01*
X63252345Y-81096000D01*
X63252188Y-81096518D01*
X63239928Y-81221000D01*
X63239928Y-81771000D01*
X63252188Y-81895482D01*
X63252345Y-81896000D01*
X63252188Y-81896518D01*
X63239928Y-82021000D01*
X63239928Y-82571000D01*
X63252188Y-82695482D01*
X63252345Y-82696000D01*
X63252188Y-82696518D01*
X63239928Y-82821000D01*
X63239928Y-83371000D01*
X63252188Y-83495482D01*
X63252345Y-83496000D01*
X63252188Y-83496518D01*
X63239928Y-83621000D01*
X63239928Y-84171000D01*
X63252188Y-84295482D01*
X63252345Y-84296000D01*
X63252188Y-84296518D01*
X63239928Y-84421000D01*
X63239928Y-84971000D01*
X63252188Y-85095482D01*
X63252345Y-85096000D01*
X63252188Y-85096518D01*
X63239928Y-85221000D01*
X63239928Y-85771000D01*
X63252188Y-85895482D01*
X63252345Y-85896000D01*
X63252188Y-85896518D01*
X63239928Y-86021000D01*
X63239928Y-86571000D01*
X63243962Y-86611962D01*
X63203000Y-86607928D01*
X62653000Y-86607928D01*
X62528518Y-86620188D01*
X62527337Y-86620546D01*
X62413750Y-86611000D01*
X62321667Y-86703083D01*
X62298506Y-86715463D01*
X62201815Y-86794815D01*
X62128000Y-86884759D01*
X62054185Y-86794815D01*
X61957494Y-86715463D01*
X61934333Y-86703083D01*
X61842250Y-86611000D01*
X61728663Y-86620546D01*
X61727482Y-86620188D01*
X61603000Y-86607928D01*
X61053000Y-86607928D01*
X60928518Y-86620188D01*
X60928000Y-86620345D01*
X60927482Y-86620188D01*
X60803000Y-86607928D01*
X60253000Y-86607928D01*
X60128518Y-86620188D01*
X60128000Y-86620345D01*
X60127482Y-86620188D01*
X60003000Y-86607928D01*
X59453000Y-86607928D01*
X59328518Y-86620188D01*
X59328000Y-86620345D01*
X59327482Y-86620188D01*
X59203000Y-86607928D01*
X58653000Y-86607928D01*
X58528518Y-86620188D01*
X58528000Y-86620345D01*
X58527482Y-86620188D01*
X58403000Y-86607928D01*
X57853000Y-86607928D01*
X57728518Y-86620188D01*
X57728000Y-86620345D01*
X57727482Y-86620188D01*
X57603000Y-86607928D01*
X57053000Y-86607928D01*
X56928518Y-86620188D01*
X56928000Y-86620345D01*
X56927482Y-86620188D01*
X56803000Y-86607928D01*
X56253000Y-86607928D01*
X56128518Y-86620188D01*
X56127337Y-86620546D01*
X56013750Y-86611000D01*
X55921667Y-86703083D01*
X55898506Y-86715463D01*
X55801815Y-86794815D01*
X55728000Y-86884759D01*
X55654185Y-86794815D01*
X55557494Y-86715463D01*
X55534333Y-86703083D01*
X55442250Y-86611000D01*
X55328663Y-86620546D01*
X55327482Y-86620188D01*
X55203000Y-86607928D01*
X54653000Y-86607928D01*
X54612038Y-86611962D01*
X54616072Y-86571000D01*
X54616072Y-86021000D01*
X54603812Y-85896518D01*
X54603655Y-85896000D01*
X54603812Y-85895482D01*
X54616072Y-85771000D01*
X54616072Y-85221000D01*
X54603812Y-85096518D01*
X54603655Y-85096000D01*
X54603812Y-85095482D01*
X54616072Y-84971000D01*
X54616072Y-84421000D01*
X54603812Y-84296518D01*
X54603655Y-84296000D01*
X54603812Y-84295482D01*
X54616072Y-84171000D01*
X54616072Y-83621000D01*
X54603812Y-83496518D01*
X54603454Y-83495337D01*
X54613000Y-83381750D01*
X54520917Y-83289667D01*
X54508537Y-83266506D01*
X54429185Y-83169815D01*
X54339241Y-83096000D01*
X54429185Y-83022185D01*
X54508537Y-82925494D01*
X54520917Y-82902333D01*
X54613000Y-82810250D01*
X54603454Y-82696663D01*
X54603812Y-82695482D01*
X54616072Y-82571000D01*
X54616072Y-82021000D01*
X54603812Y-81896518D01*
X54603655Y-81896000D01*
X54603812Y-81895482D01*
X54616072Y-81771000D01*
X54616072Y-81221000D01*
X54603812Y-81096518D01*
X54603655Y-81096000D01*
X54603812Y-81095482D01*
X54616072Y-80971000D01*
X54616072Y-80421000D01*
X54603812Y-80296518D01*
X54603655Y-80296000D01*
X54603812Y-80295482D01*
X54616072Y-80171000D01*
X54616072Y-79621000D01*
X54603812Y-79496518D01*
X54603655Y-79496000D01*
X54603812Y-79495482D01*
X54616072Y-79371000D01*
X54616072Y-78821000D01*
X54603812Y-78696518D01*
X54603655Y-78696000D01*
X54603812Y-78695482D01*
X54616072Y-78571000D01*
X54616072Y-78021000D01*
X54612038Y-77980038D01*
X54653000Y-77984072D01*
X55203000Y-77984072D01*
X55327482Y-77971812D01*
X55328000Y-77971655D01*
X55328518Y-77971812D01*
X55453000Y-77984072D01*
X56003000Y-77984072D01*
X56127482Y-77971812D01*
X56128000Y-77971655D01*
X56128518Y-77971812D01*
X56253000Y-77984072D01*
X56803000Y-77984072D01*
X56927482Y-77971812D01*
X56928663Y-77971454D01*
X57042250Y-77981000D01*
X57108750Y-77914500D01*
X57547250Y-77914500D01*
X57613750Y-77981000D01*
M02*
