G04 #@! TF.GenerationSoftware,KiCad,Pcbnew,(5.0.0)*
G04 #@! TF.CreationDate,2019-01-07T21:39:53-08:00*
G04 #@! TF.ProjectId,ai03-pcb-guide,616930332D7063622D67756964652E6B,rev?*
G04 #@! TF.SameCoordinates,Original*
G04 #@! TF.FileFunction,Legend,Top*
G04 #@! TF.FilePolarity,Positive*
%FSLAX46Y46*%
G04 Gerber Fmt 4.6, Leading zero omitted, Abs format (unit mm)*
G04 Created by KiCad (PCBNEW (5.0.0)) date 01/07/19 21:39:53*
%MOMM*%
%LPD*%
G01*
G04 APERTURE LIST*
%ADD10C,0.300000*%
%ADD11C,2.150000*%
%ADD12C,4.387800*%
%ADD13O,2.100000X3.100000*%
G04 APERTURE END LIST*
D10*
X33945535Y-98309821D02*
X33945535Y-96809821D01*
X33945535Y-97524107D02*
X34802678Y-97524107D01*
X34802678Y-98309821D02*
X34802678Y-96809821D01*
X36088392Y-98238392D02*
X35945535Y-98309821D01*
X35659821Y-98309821D01*
X35516964Y-98238392D01*
X35445535Y-98095535D01*
X35445535Y-97524107D01*
X35516964Y-97381250D01*
X35659821Y-97309821D01*
X35945535Y-97309821D01*
X36088392Y-97381250D01*
X36159821Y-97524107D01*
X36159821Y-97666964D01*
X35445535Y-97809821D01*
X37016964Y-98309821D02*
X36874107Y-98238392D01*
X36802678Y-98095535D01*
X36802678Y-96809821D01*
X37802678Y-98309821D02*
X37659821Y-98238392D01*
X37588392Y-98095535D01*
X37588392Y-96809821D01*
X38588392Y-98309821D02*
X38445535Y-98238392D01*
X38374107Y-98166964D01*
X38302678Y-98024107D01*
X38302678Y-97595535D01*
X38374107Y-97452678D01*
X38445535Y-97381250D01*
X38588392Y-97309821D01*
X38802678Y-97309821D01*
X38945535Y-97381250D01*
X39016964Y-97452678D01*
X39088392Y-97595535D01*
X39088392Y-98024107D01*
X39016964Y-98166964D01*
X38945535Y-98238392D01*
X38802678Y-98309821D01*
X38588392Y-98309821D01*
X40731250Y-96809821D02*
X41088392Y-98309821D01*
X41374107Y-97238392D01*
X41659821Y-98309821D01*
X42016964Y-96809821D01*
X42802678Y-98309821D02*
X42659821Y-98238392D01*
X42588392Y-98166964D01*
X42516964Y-98024107D01*
X42516964Y-97595535D01*
X42588392Y-97452678D01*
X42659821Y-97381250D01*
X42802678Y-97309821D01*
X43016964Y-97309821D01*
X43159821Y-97381250D01*
X43231250Y-97452678D01*
X43302678Y-97595535D01*
X43302678Y-98024107D01*
X43231250Y-98166964D01*
X43159821Y-98238392D01*
X43016964Y-98309821D01*
X42802678Y-98309821D01*
X43945535Y-98309821D02*
X43945535Y-97309821D01*
X43945535Y-97595535D02*
X44016964Y-97452678D01*
X44088392Y-97381250D01*
X44231250Y-97309821D01*
X44374107Y-97309821D01*
X45088392Y-98309821D02*
X44945535Y-98238392D01*
X44874107Y-98095535D01*
X44874107Y-96809821D01*
X46302678Y-98309821D02*
X46302678Y-96809821D01*
X46302678Y-98238392D02*
X46159821Y-98309821D01*
X45874107Y-98309821D01*
X45731250Y-98238392D01*
X45659821Y-98166964D01*
X45588392Y-98024107D01*
X45588392Y-97595535D01*
X45659821Y-97452678D01*
X45731250Y-97381250D01*
X45874107Y-97309821D01*
X46159821Y-97309821D01*
X46302678Y-97381250D01*
X47016964Y-98166964D02*
X47088392Y-98238392D01*
X47016964Y-98309821D01*
X46945535Y-98238392D01*
X47016964Y-98166964D01*
X47016964Y-98309821D01*
X47016964Y-97738392D02*
X46945535Y-96881250D01*
X47016964Y-96809821D01*
X47088392Y-96881250D01*
X47016964Y-97738392D01*
X47016964Y-96809821D01*
%LPC*%
D11*
G04 #@! TO.C,MX1*
X84455000Y-71437500D03*
X74295000Y-71437500D03*
D12*
X79375000Y-71437500D03*
G04 #@! TD*
G04 #@! TO.C,MX2*
X98425000Y-71437500D03*
D11*
X93345000Y-71437500D03*
X103505000Y-71437500D03*
G04 #@! TD*
G04 #@! TO.C,MX3*
X84455000Y-90487500D03*
X74295000Y-90487500D03*
D12*
X79375000Y-90487500D03*
G04 #@! TD*
G04 #@! TO.C,MX4*
X98425000Y-90487500D03*
D11*
X93345000Y-90487500D03*
X103505000Y-90487500D03*
G04 #@! TD*
D13*
G04 #@! TO.C,USB1*
X36037500Y-68000000D03*
X43337500Y-68000000D03*
X43337500Y-63500000D03*
X36037500Y-63500000D03*
G04 #@! TD*
M02*
