M48
; DRILL file {KiCad (5.1.2)-1} date 6/1/2019 7:46:40 PM
; FORMAT={-:-/ absolute / inch / decimal}
; #@! TF.CreationDate,2019-06-01T19:46:40-07:00
; #@! TF.GenerationSoftware,Kicad,Pcbnew,(5.1.2)-1
; #@! TF.FileFunction,Plated,1,2,PTH
FMAT,2
INCH
T1C0.0157
T2C0.0276
T3C0.0409
T4C0.0579
%
G90
G05
T1
X1.715Y-3.69
X1.825Y-2.95
X1.96Y-2.89
X2.02Y-3.185
X2.02Y-3.365
X2.605Y-3.6
X2.745Y-3.095
T3
X3.075Y-3.0125
X3.175Y-3.0125
X3.825Y-3.7625
X3.925Y-3.7625
X3.825Y-3.0125
X3.925Y-3.0125
X3.075Y-3.7625
X3.175Y-3.7625
T4
X2.975Y-2.7125
X3.0266Y-2.655
X3.2234Y-2.6353
X3.225Y-2.6125
X3.725Y-3.4625
X3.7766Y-3.405
X3.9734Y-3.3853
X3.975Y-3.3625
X3.725Y-2.7125
X3.7766Y-2.655
X3.9734Y-2.6353
X3.975Y-2.6125
X2.975Y-3.4625
X3.0266Y-3.405
X3.2234Y-3.3853
X3.225Y-3.3625
T2
G00X1.4188Y-2.4764
M15
G01X1.4188Y-2.5236
M16
G05
G00X1.4188Y-2.6535
M15
G01X1.4188Y-2.7008
M16
G05
G00X1.7062Y-2.4764
M15
G01X1.7062Y-2.5236
M16
G05
G00X1.7062Y-2.6535
M15
G01X1.7062Y-2.7008
M16
G05
T0
M30
