G04 #@! TF.GenerationSoftware,KiCad,Pcbnew,(5.0.0)*
G04 #@! TF.CreationDate,2019-01-07T21:39:53-08:00*
G04 #@! TF.ProjectId,ai03-pcb-guide,616930332D7063622D67756964652E6B,rev?*
G04 #@! TF.SameCoordinates,Original*
G04 #@! TF.FileFunction,Copper,L2,Bot,Signal*
G04 #@! TF.FilePolarity,Positive*
%FSLAX46Y46*%
G04 Gerber Fmt 4.6, Leading zero omitted, Abs format (unit mm)*
G04 Created by KiCad (PCBNEW (5.0.0)) date 01/07/19 21:39:53*
%MOMM*%
%LPD*%
G01*
G04 APERTURE LIST*
G04 #@! TA.AperFunction,SMDPad,CuDef*
%ADD10R,1.250000X1.000000*%
G04 #@! TD*
G04 #@! TA.AperFunction,SMDPad,CuDef*
%ADD11R,1.000000X1.250000*%
G04 #@! TD*
G04 #@! TA.AperFunction,SMDPad,CuDef*
%ADD12R,1.200000X0.900000*%
G04 #@! TD*
G04 #@! TA.AperFunction,SMDPad,CuDef*
%ADD13R,2.030000X1.140000*%
G04 #@! TD*
G04 #@! TA.AperFunction,ComponentPad*
%ADD14R,1.905000X1.905000*%
G04 #@! TD*
G04 #@! TA.AperFunction,ComponentPad*
%ADD15C,1.905000*%
G04 #@! TD*
G04 #@! TA.AperFunction,ComponentPad*
%ADD16C,2.250000*%
G04 #@! TD*
G04 #@! TA.AperFunction,Conductor*
%ADD17C,2.250000*%
G04 #@! TD*
G04 #@! TA.AperFunction,SMDPad,CuDef*
%ADD18R,1.300000X0.700000*%
G04 #@! TD*
G04 #@! TA.AperFunction,SMDPad,CuDef*
%ADD19R,1.800000X1.100000*%
G04 #@! TD*
G04 #@! TA.AperFunction,SMDPad,CuDef*
%ADD20R,0.550000X1.500000*%
G04 #@! TD*
G04 #@! TA.AperFunction,SMDPad,CuDef*
%ADD21R,1.500000X0.550000*%
G04 #@! TD*
G04 #@! TA.AperFunction,SMDPad,CuDef*
%ADD22R,0.500000X2.250000*%
G04 #@! TD*
G04 #@! TA.AperFunction,ComponentPad*
%ADD23O,1.700000X2.700000*%
G04 #@! TD*
G04 #@! TA.AperFunction,SMDPad,CuDef*
%ADD24R,1.400000X1.200000*%
G04 #@! TD*
G04 #@! TA.AperFunction,ViaPad*
%ADD25C,0.800000*%
G04 #@! TD*
G04 #@! TA.AperFunction,Conductor*
%ADD26C,0.254000*%
G04 #@! TD*
G04 #@! TA.AperFunction,Conductor*
%ADD27C,0.381000*%
G04 #@! TD*
G04 APERTURE END LIST*
D10*
G04 #@! TO.P,C1,1*
G04 #@! TO.N,Net-(C1-Pad1)*
X62833250Y-70342000D03*
G04 #@! TO.P,C1,2*
G04 #@! TO.N,GND*
X62833250Y-68342000D03*
G04 #@! TD*
G04 #@! TO.P,C2,2*
G04 #@! TO.N,GND*
X54324250Y-70342000D03*
G04 #@! TO.P,C2,1*
G04 #@! TO.N,Net-(C2-Pad1)*
X54324250Y-68342000D03*
G04 #@! TD*
D11*
G04 #@! TO.P,C3,2*
G04 #@! TO.N,GND*
X47736250Y-81788000D03*
G04 #@! TO.P,C3,1*
G04 #@! TO.N,Net-(C3-Pad1)*
X49736250Y-81788000D03*
G04 #@! TD*
D10*
G04 #@! TO.P,C4,2*
G04 #@! TO.N,GND*
X51403250Y-73041000D03*
G04 #@! TO.P,C4,1*
G04 #@! TO.N,+5V*
X51403250Y-75041000D03*
G04 #@! TD*
G04 #@! TO.P,C5,1*
G04 #@! TO.N,+5V*
X68040250Y-78597000D03*
G04 #@! TO.P,C5,2*
G04 #@! TO.N,GND*
X68040250Y-76597000D03*
G04 #@! TD*
D11*
G04 #@! TO.P,C6,2*
G04 #@! TO.N,GND*
X62595250Y-91440000D03*
G04 #@! TO.P,C6,1*
G04 #@! TO.N,+5V*
X64595250Y-91440000D03*
G04 #@! TD*
D10*
G04 #@! TO.P,C7,1*
G04 #@! TO.N,+5V*
X49403000Y-86249000D03*
G04 #@! TO.P,C7,2*
G04 #@! TO.N,GND*
X49403000Y-88249000D03*
G04 #@! TD*
D12*
G04 #@! TO.P,D1,1*
G04 #@! TO.N,ROW0*
X87312500Y-73087500D03*
G04 #@! TO.P,D1,2*
G04 #@! TO.N,Net-(D1-Pad2)*
X87312500Y-69787500D03*
G04 #@! TD*
G04 #@! TO.P,D2,2*
G04 #@! TO.N,Net-(D2-Pad2)*
X106362500Y-69787500D03*
G04 #@! TO.P,D2,1*
G04 #@! TO.N,ROW0*
X106362500Y-73087500D03*
G04 #@! TD*
G04 #@! TO.P,D3,1*
G04 #@! TO.N,ROW1*
X87312500Y-92137500D03*
G04 #@! TO.P,D3,2*
G04 #@! TO.N,Net-(D3-Pad2)*
X87312500Y-88837500D03*
G04 #@! TD*
G04 #@! TO.P,D4,2*
G04 #@! TO.N,Net-(D4-Pad2)*
X106362500Y-88837500D03*
G04 #@! TO.P,D4,1*
G04 #@! TO.N,ROW1*
X106362500Y-92137500D03*
G04 #@! TD*
D13*
G04 #@! TO.P,F1,2*
G04 #@! TO.N,VCC*
X34925000Y-78175000D03*
G04 #@! TO.P,F1,1*
G04 #@! TO.N,+5V*
X34925000Y-80575000D03*
G04 #@! TD*
D14*
G04 #@! TO.P,MX1,4*
G04 #@! TO.N,Net-(MX1-Pad4)*
X80645000Y-76517500D03*
D15*
G04 #@! TO.P,MX1,3*
G04 #@! TO.N,Net-(MX1-Pad3)*
X78105000Y-76517500D03*
D16*
G04 #@! TO.P,MX1,1*
G04 #@! TO.N,COL0*
X76875000Y-67437500D03*
X76220001Y-68167500D03*
D17*
G04 #@! TD*
G04 #@! TO.N,COL0*
G04 #@! TO.C,MX1*
X75565000Y-68897500D02*
X76875002Y-67437500D01*
D16*
G04 #@! TO.P,MX1,2*
G04 #@! TO.N,Net-(D1-Pad2)*
X81915000Y-66357500D03*
X81895000Y-66647500D03*
D17*
G04 #@! TD*
G04 #@! TO.N,Net-(D1-Pad2)*
G04 #@! TO.C,MX1*
X81875000Y-66937500D02*
X81915000Y-66357500D01*
D16*
G04 #@! TO.P,MX2,2*
G04 #@! TO.N,Net-(D2-Pad2)*
X100945000Y-66647500D03*
D17*
G04 #@! TD*
G04 #@! TO.N,Net-(D2-Pad2)*
G04 #@! TO.C,MX2*
X100925000Y-66937500D02*
X100965000Y-66357500D01*
D16*
G04 #@! TO.P,MX2,2*
G04 #@! TO.N,Net-(D2-Pad2)*
X100965000Y-66357500D03*
G04 #@! TO.P,MX2,1*
G04 #@! TO.N,COL1*
X95270001Y-68167500D03*
D17*
G04 #@! TD*
G04 #@! TO.N,COL1*
G04 #@! TO.C,MX2*
X94615000Y-68897500D02*
X95925002Y-67437500D01*
D16*
G04 #@! TO.P,MX2,1*
G04 #@! TO.N,COL1*
X95925000Y-67437500D03*
D15*
G04 #@! TO.P,MX2,3*
G04 #@! TO.N,Net-(MX2-Pad3)*
X97155000Y-76517500D03*
D14*
G04 #@! TO.P,MX2,4*
G04 #@! TO.N,Net-(MX2-Pad4)*
X99695000Y-76517500D03*
G04 #@! TD*
G04 #@! TO.P,MX3,4*
G04 #@! TO.N,Net-(MX3-Pad4)*
X80645000Y-95567500D03*
D15*
G04 #@! TO.P,MX3,3*
G04 #@! TO.N,Net-(MX3-Pad3)*
X78105000Y-95567500D03*
D16*
G04 #@! TO.P,MX3,1*
G04 #@! TO.N,COL0*
X76875000Y-86487500D03*
X76220001Y-87217500D03*
D17*
G04 #@! TD*
G04 #@! TO.N,COL0*
G04 #@! TO.C,MX3*
X75565000Y-87947500D02*
X76875002Y-86487500D01*
D16*
G04 #@! TO.P,MX3,2*
G04 #@! TO.N,Net-(D3-Pad2)*
X81915000Y-85407500D03*
X81895000Y-85697500D03*
D17*
G04 #@! TD*
G04 #@! TO.N,Net-(D3-Pad2)*
G04 #@! TO.C,MX3*
X81875000Y-85987500D02*
X81915000Y-85407500D01*
D16*
G04 #@! TO.P,MX4,2*
G04 #@! TO.N,Net-(D4-Pad2)*
X100945000Y-85697500D03*
D17*
G04 #@! TD*
G04 #@! TO.N,Net-(D4-Pad2)*
G04 #@! TO.C,MX4*
X100925000Y-85987500D02*
X100965000Y-85407500D01*
D16*
G04 #@! TO.P,MX4,2*
G04 #@! TO.N,Net-(D4-Pad2)*
X100965000Y-85407500D03*
G04 #@! TO.P,MX4,1*
G04 #@! TO.N,COL1*
X95270001Y-87217500D03*
D17*
G04 #@! TD*
G04 #@! TO.N,COL1*
G04 #@! TO.C,MX4*
X94615000Y-87947500D02*
X95925002Y-86487500D01*
D16*
G04 #@! TO.P,MX4,1*
G04 #@! TO.N,COL1*
X95925000Y-86487500D03*
D15*
G04 #@! TO.P,MX4,3*
G04 #@! TO.N,Net-(MX4-Pad3)*
X97155000Y-95567500D03*
D14*
G04 #@! TO.P,MX4,4*
G04 #@! TO.N,Net-(MX4-Pad4)*
X99695000Y-95567500D03*
G04 #@! TD*
D18*
G04 #@! TO.P,R1,1*
G04 #@! TO.N,+5V*
X47974250Y-73091000D03*
G04 #@! TO.P,R1,2*
G04 #@! TO.N,Net-(R1-Pad2)*
X47974250Y-74991000D03*
G04 #@! TD*
G04 #@! TO.P,R2,1*
G04 #@! TO.N,Net-(R2-Pad1)*
X40894000Y-74864000D03*
G04 #@! TO.P,R2,2*
G04 #@! TO.N,D+*
X40894000Y-72964000D03*
G04 #@! TD*
G04 #@! TO.P,R3,2*
G04 #@! TO.N,D-*
X37592000Y-72964000D03*
G04 #@! TO.P,R3,1*
G04 #@! TO.N,Net-(R3-Pad1)*
X37592000Y-74864000D03*
G04 #@! TD*
G04 #@! TO.P,R4,2*
G04 #@! TO.N,Net-(R4-Pad2)*
X68199000Y-86553000D03*
G04 #@! TO.P,R4,1*
G04 #@! TO.N,GND*
X68199000Y-88453000D03*
G04 #@! TD*
D19*
G04 #@! TO.P,SW1,1*
G04 #@! TO.N,GND*
X35384001Y-97357845D03*
G04 #@! TO.P,SW1,2*
G04 #@! TO.N,Net-(R1-Pad2)*
X41584001Y-93657845D03*
G04 #@! TO.P,SW1,3*
G04 #@! TO.N,N/C*
X35384001Y-93657845D03*
G04 #@! TO.P,SW1,4*
X41584001Y-97357845D03*
G04 #@! TD*
D20*
G04 #@! TO.P,U1,44*
G04 #@! TO.N,+5V*
X54896250Y-87996000D03*
G04 #@! TO.P,U1,43*
G04 #@! TO.N,GND*
X55696250Y-87996000D03*
G04 #@! TO.P,U1,42*
G04 #@! TO.N,Net-(U1-Pad42)*
X56496250Y-87996000D03*
G04 #@! TO.P,U1,41*
G04 #@! TO.N,Net-(U1-Pad41)*
X57296250Y-87996000D03*
G04 #@! TO.P,U1,40*
G04 #@! TO.N,Net-(U1-Pad40)*
X58096250Y-87996000D03*
G04 #@! TO.P,U1,39*
G04 #@! TO.N,Net-(U1-Pad39)*
X58896250Y-87996000D03*
G04 #@! TO.P,U1,38*
G04 #@! TO.N,Net-(U1-Pad38)*
X59696250Y-87996000D03*
G04 #@! TO.P,U1,37*
G04 #@! TO.N,Net-(U1-Pad37)*
X60496250Y-87996000D03*
G04 #@! TO.P,U1,36*
G04 #@! TO.N,Net-(U1-Pad36)*
X61296250Y-87996000D03*
G04 #@! TO.P,U1,35*
G04 #@! TO.N,GND*
X62096250Y-87996000D03*
G04 #@! TO.P,U1,34*
G04 #@! TO.N,+5V*
X62896250Y-87996000D03*
D21*
G04 #@! TO.P,U1,33*
G04 #@! TO.N,Net-(R4-Pad2)*
X64596250Y-86296000D03*
G04 #@! TO.P,U1,32*
G04 #@! TO.N,Net-(U1-Pad32)*
X64596250Y-85496000D03*
G04 #@! TO.P,U1,31*
G04 #@! TO.N,Net-(U1-Pad31)*
X64596250Y-84696000D03*
G04 #@! TO.P,U1,30*
G04 #@! TO.N,ROW1*
X64596250Y-83896000D03*
G04 #@! TO.P,U1,29*
G04 #@! TO.N,COL0*
X64596250Y-83096000D03*
G04 #@! TO.P,U1,28*
G04 #@! TO.N,COL1*
X64596250Y-82296000D03*
G04 #@! TO.P,U1,27*
G04 #@! TO.N,ROW0*
X64596250Y-81496000D03*
G04 #@! TO.P,U1,26*
G04 #@! TO.N,Net-(U1-Pad26)*
X64596250Y-80696000D03*
G04 #@! TO.P,U1,25*
G04 #@! TO.N,Net-(U1-Pad25)*
X64596250Y-79896000D03*
G04 #@! TO.P,U1,24*
G04 #@! TO.N,+5V*
X64596250Y-79096000D03*
G04 #@! TO.P,U1,23*
G04 #@! TO.N,GND*
X64596250Y-78296000D03*
D20*
G04 #@! TO.P,U1,22*
G04 #@! TO.N,Net-(U1-Pad22)*
X62896250Y-76596000D03*
G04 #@! TO.P,U1,21*
G04 #@! TO.N,Net-(U1-Pad21)*
X62096250Y-76596000D03*
G04 #@! TO.P,U1,20*
G04 #@! TO.N,Net-(U1-Pad20)*
X61296250Y-76596000D03*
G04 #@! TO.P,U1,19*
G04 #@! TO.N,Net-(U1-Pad19)*
X60496250Y-76596000D03*
G04 #@! TO.P,U1,18*
G04 #@! TO.N,Net-(U1-Pad18)*
X59696250Y-76596000D03*
G04 #@! TO.P,U1,17*
G04 #@! TO.N,Net-(C1-Pad1)*
X58896250Y-76596000D03*
G04 #@! TO.P,U1,16*
G04 #@! TO.N,Net-(C2-Pad1)*
X58096250Y-76596000D03*
G04 #@! TO.P,U1,15*
G04 #@! TO.N,GND*
X57296250Y-76596000D03*
G04 #@! TO.P,U1,14*
G04 #@! TO.N,+5V*
X56496250Y-76596000D03*
G04 #@! TO.P,U1,13*
G04 #@! TO.N,Net-(R1-Pad2)*
X55696250Y-76596000D03*
G04 #@! TO.P,U1,12*
G04 #@! TO.N,Net-(U1-Pad12)*
X54896250Y-76596000D03*
D21*
G04 #@! TO.P,U1,11*
G04 #@! TO.N,Net-(U1-Pad11)*
X53196250Y-78296000D03*
G04 #@! TO.P,U1,10*
G04 #@! TO.N,Net-(U1-Pad10)*
X53196250Y-79096000D03*
G04 #@! TO.P,U1,9*
G04 #@! TO.N,Net-(U1-Pad9)*
X53196250Y-79896000D03*
G04 #@! TO.P,U1,8*
G04 #@! TO.N,Net-(U1-Pad8)*
X53196250Y-80696000D03*
G04 #@! TO.P,U1,7*
G04 #@! TO.N,+5V*
X53196250Y-81496000D03*
G04 #@! TO.P,U1,6*
G04 #@! TO.N,Net-(C3-Pad1)*
X53196250Y-82296000D03*
G04 #@! TO.P,U1,5*
G04 #@! TO.N,GND*
X53196250Y-83096000D03*
G04 #@! TO.P,U1,4*
G04 #@! TO.N,Net-(R2-Pad1)*
X53196250Y-83896000D03*
G04 #@! TO.P,U1,3*
G04 #@! TO.N,Net-(R3-Pad1)*
X53196250Y-84696000D03*
G04 #@! TO.P,U1,2*
G04 #@! TO.N,+5V*
X53196250Y-85496000D03*
G04 #@! TO.P,U1,1*
G04 #@! TO.N,Net-(U1-Pad1)*
X53196250Y-86296000D03*
G04 #@! TD*
D22*
G04 #@! TO.P,USB1,1*
G04 #@! TO.N,GND*
X41287500Y-68000000D03*
G04 #@! TO.P,USB1,2*
G04 #@! TO.N,Net-(USB1-Pad2)*
X40487500Y-68000000D03*
G04 #@! TO.P,USB1,3*
G04 #@! TO.N,D+*
X39687500Y-68000000D03*
G04 #@! TO.P,USB1,4*
G04 #@! TO.N,D-*
X38887500Y-68000000D03*
G04 #@! TO.P,USB1,5*
G04 #@! TO.N,VCC*
X38087500Y-68000000D03*
D23*
G04 #@! TO.P,USB1,*
G04 #@! TO.N,*
X36037500Y-68000000D03*
X43337500Y-68000000D03*
X43337500Y-63500000D03*
X36037500Y-63500000D03*
G04 #@! TD*
D24*
G04 #@! TO.P,Y1,4*
G04 #@! TO.N,GND*
X59615250Y-68492000D03*
G04 #@! TO.P,Y1,3*
G04 #@! TO.N,Net-(C2-Pad1)*
X57415250Y-68492000D03*
G04 #@! TO.P,Y1,2*
G04 #@! TO.N,GND*
X57415250Y-70192000D03*
G04 #@! TO.P,Y1,1*
G04 #@! TO.N,Net-(C1-Pad1)*
X59615250Y-70192000D03*
G04 #@! TD*
D25*
G04 #@! TO.N,+5V*
X51308000Y-80899000D03*
X51308000Y-85471000D03*
X49784000Y-73406000D03*
X69723000Y-78613000D03*
X66167000Y-91440000D03*
G04 #@! TO.N,Net-(R1-Pad2)*
X43561000Y-93726000D03*
X46355000Y-74930000D03*
G04 #@! TD*
D26*
G04 #@! TO.N,Net-(C1-Pad1)*
X59765250Y-70342000D02*
X59615250Y-70192000D01*
X62833250Y-70342000D02*
X59765250Y-70342000D01*
X59615250Y-72433000D02*
X58896250Y-73152000D01*
X59615250Y-70192000D02*
X59615250Y-72433000D01*
X58896250Y-76596000D02*
X58896250Y-73152000D01*
D27*
G04 #@! TO.N,GND*
X57415250Y-70192000D02*
X57671600Y-70192000D01*
X59371600Y-68492000D02*
X59615250Y-68492000D01*
X57671600Y-70192000D02*
X59371600Y-68492000D01*
X59765250Y-68342000D02*
X59615250Y-68492000D01*
X62833250Y-68342000D02*
X59765250Y-68342000D01*
X59615250Y-68492000D02*
X59615250Y-67362250D01*
X59615250Y-67362250D02*
X59182000Y-66929000D01*
X59182000Y-66929000D02*
X53086000Y-66929000D01*
X53086000Y-66929000D02*
X52705000Y-67310000D01*
X52705000Y-67310000D02*
X52705000Y-69850000D01*
X53197000Y-70342000D02*
X54324250Y-70342000D01*
X52705000Y-69850000D02*
X53197000Y-70342000D01*
X54324250Y-70342000D02*
X54324250Y-71215250D01*
X54324250Y-71215250D02*
X57296250Y-74187250D01*
X57296250Y-74187250D02*
X57296250Y-75311000D01*
X57296250Y-75311000D02*
X57296250Y-76596000D01*
X55696250Y-87996000D02*
X55696250Y-84398250D01*
X54394000Y-83096000D02*
X53196250Y-83096000D01*
X55696250Y-84398250D02*
X54394000Y-83096000D01*
X62096250Y-87996000D02*
X62096250Y-85591250D01*
X60903250Y-84398250D02*
X55696250Y-84398250D01*
X62096250Y-85591250D02*
X60903250Y-84398250D01*
X53196250Y-83096000D02*
X48171000Y-83096000D01*
X47736250Y-82661250D02*
X47736250Y-81788000D01*
X48171000Y-83096000D02*
X47736250Y-82661250D01*
X41287500Y-68000000D02*
X41287500Y-69354500D01*
X41287500Y-69354500D02*
X42926000Y-70993000D01*
X42926000Y-70993000D02*
X42926000Y-80772000D01*
X45250000Y-83096000D02*
X48171000Y-83096000D01*
X42926000Y-80772000D02*
X45250000Y-83096000D01*
X68040250Y-76597000D02*
X67294000Y-76597000D01*
X65595000Y-78296000D02*
X64596250Y-78296000D01*
X67294000Y-76597000D02*
X65595000Y-78296000D01*
X57296250Y-75203250D02*
X57296250Y-75311000D01*
X56007000Y-73914000D02*
X57296250Y-75203250D01*
X53086000Y-73914000D02*
X56007000Y-73914000D01*
X52213000Y-73041000D02*
X53086000Y-73914000D01*
X51403250Y-73041000D02*
X52213000Y-73041000D01*
X52054000Y-88249000D02*
X49403000Y-88249000D01*
X53721000Y-89916000D02*
X52054000Y-88249000D01*
X54991000Y-89916000D02*
X53721000Y-89916000D01*
X55696250Y-89210750D02*
X54991000Y-89916000D01*
X55696250Y-87996000D02*
X55696250Y-89210750D01*
X68199000Y-88453000D02*
X68199000Y-90805000D01*
X68199000Y-90805000D02*
X65024000Y-93980000D01*
X65024000Y-93980000D02*
X64008000Y-93980000D01*
X62595250Y-92567250D02*
X62595250Y-91440000D01*
X64008000Y-93980000D02*
X62595250Y-92567250D01*
X62096250Y-87996000D02*
X62096250Y-89655250D01*
X62595250Y-90154250D02*
X62595250Y-91440000D01*
X62096250Y-89655250D02*
X62595250Y-90154250D01*
X64596250Y-78296000D02*
X62420000Y-78296000D01*
X60903250Y-79812750D02*
X60903250Y-84398250D01*
X62420000Y-78296000D02*
X60903250Y-79812750D01*
X57296250Y-76596000D02*
X57296250Y-77743250D01*
X59365750Y-79812750D02*
X60903250Y-79812750D01*
X57296250Y-77743250D02*
X59365750Y-79812750D01*
X35384001Y-97357845D02*
X34238845Y-97357845D01*
X34238845Y-97357845D02*
X33401000Y-96520000D01*
X33401000Y-96520000D02*
X33401000Y-92075000D01*
X37227000Y-88249000D02*
X49403000Y-88249000D01*
X33401000Y-92075000D02*
X37227000Y-88249000D01*
D26*
G04 #@! TO.N,Net-(C2-Pad1)*
X58096250Y-76596000D02*
X58096250Y-73209250D01*
X58096250Y-73209250D02*
X56134000Y-71247000D01*
X56134000Y-71247000D02*
X56134000Y-69088000D01*
X56730000Y-68492000D02*
X57415250Y-68492000D01*
X56134000Y-69088000D02*
X56730000Y-68492000D01*
X57265250Y-68342000D02*
X57415250Y-68492000D01*
X54324250Y-68342000D02*
X57265250Y-68342000D01*
G04 #@! TO.N,Net-(C3-Pad1)*
X53196250Y-82296000D02*
X51689000Y-82296000D01*
X51181000Y-81788000D02*
X49736250Y-81788000D01*
X51689000Y-82296000D02*
X51181000Y-81788000D01*
D27*
G04 #@! TO.N,+5V*
X62896250Y-87996000D02*
X62896250Y-89058250D01*
X64595250Y-90757250D02*
X64595250Y-91440000D01*
X62896250Y-89058250D02*
X64595250Y-90757250D01*
X53196250Y-81496000D02*
X51905000Y-81496000D01*
X51905000Y-81496000D02*
X51308000Y-80899000D01*
X53171250Y-85471000D02*
X53196250Y-85496000D01*
X51308000Y-85471000D02*
X53171250Y-85471000D01*
X50530000Y-86249000D02*
X51308000Y-85471000D01*
X49403000Y-86249000D02*
X50530000Y-86249000D01*
X54896250Y-88994750D02*
X54896250Y-87996000D01*
X36633000Y-80575000D02*
X34925000Y-80575000D01*
X47863000Y-85725000D02*
X48387000Y-86249000D01*
X41783000Y-85725000D02*
X47863000Y-85725000D01*
X49403000Y-86249000D02*
X48387000Y-86249000D01*
X41783000Y-85725000D02*
X36633000Y-80575000D01*
X66920000Y-78597000D02*
X66421000Y-79096000D01*
X68040250Y-78597000D02*
X66920000Y-78597000D01*
X64596250Y-79096000D02*
X66421000Y-79096000D01*
X56496250Y-75419250D02*
X56496250Y-76596000D01*
X55626000Y-74549000D02*
X56496250Y-75419250D01*
X52832000Y-74549000D02*
X55626000Y-74549000D01*
X51403250Y-75041000D02*
X52340000Y-75041000D01*
X52340000Y-75041000D02*
X52832000Y-74549000D01*
X51403250Y-75041000D02*
X50657000Y-75041000D01*
X48707000Y-73091000D02*
X47974250Y-73091000D01*
X49784000Y-73406000D02*
X49784000Y-74168000D01*
X50657000Y-75041000D02*
X49784000Y-74168000D01*
X49784000Y-74168000D02*
X48707000Y-73091000D01*
X51308000Y-85471000D02*
X51308000Y-86487000D01*
X51308000Y-86487000D02*
X54102000Y-89281000D01*
X54610000Y-89281000D02*
X54896250Y-88994750D01*
X54102000Y-89281000D02*
X54610000Y-89281000D01*
X68040250Y-78597000D02*
X69707000Y-78597000D01*
X69707000Y-78597000D02*
X69723000Y-78613000D01*
X64595250Y-91440000D02*
X66167000Y-91440000D01*
D26*
G04 #@! TO.N,ROW0*
X88200500Y-73087500D02*
X87312500Y-73087500D01*
X89154000Y-74041000D02*
X88200500Y-73087500D01*
X104521000Y-74041000D02*
X89154000Y-74041000D01*
X106362500Y-73087500D02*
X105474500Y-73087500D01*
X105474500Y-73087500D02*
X104521000Y-74041000D01*
X64596250Y-81496000D02*
X65621000Y-81496000D01*
X65621000Y-81496000D02*
X66040000Y-81915000D01*
X78485000Y-81915000D02*
X87312500Y-73087500D01*
X66040000Y-81915000D02*
X78485000Y-81915000D01*
G04 #@! TO.N,Net-(D1-Pad2)*
X84462500Y-66937500D02*
X87312500Y-69787500D01*
X81875000Y-66937500D02*
X84462500Y-66937500D01*
G04 #@! TO.N,Net-(D2-Pad2)*
X103512500Y-66937500D02*
X106362500Y-69787500D01*
X100925000Y-66937500D02*
X103512500Y-66937500D01*
G04 #@! TO.N,ROW1*
X106362500Y-92137500D02*
X105474500Y-92137500D01*
X105474500Y-92137500D02*
X104521000Y-93091000D01*
X104521000Y-93091000D02*
X89154000Y-93091000D01*
X88200500Y-92137500D02*
X87312500Y-92137500D01*
X89154000Y-93091000D02*
X88200500Y-92137500D01*
X86424500Y-92137500D02*
X85471000Y-93091000D01*
X85471000Y-93091000D02*
X74676000Y-93091000D01*
X87312500Y-92137500D02*
X86424500Y-92137500D01*
X64596250Y-83896000D02*
X65583000Y-83896000D01*
X65583000Y-83896000D02*
X66040000Y-83439000D01*
X66040000Y-83439000D02*
X70358000Y-83439000D01*
X72771000Y-85852000D02*
X72771000Y-91186000D01*
X70358000Y-83439000D02*
X72771000Y-85852000D01*
X74676000Y-93091000D02*
X72771000Y-91186000D01*
G04 #@! TO.N,Net-(D3-Pad2)*
X84462500Y-85987500D02*
X87312500Y-88837500D01*
X81875000Y-85987500D02*
X84462500Y-85987500D01*
G04 #@! TO.N,Net-(D4-Pad2)*
X103512500Y-85987500D02*
X106362500Y-88837500D01*
X100925000Y-85987500D02*
X103512500Y-85987500D01*
D27*
G04 #@! TO.N,VCC*
X34925000Y-78175000D02*
X34925000Y-72644000D01*
X38087500Y-69481500D02*
X38087500Y-68000000D01*
X34925000Y-72644000D02*
X38087500Y-69481500D01*
D26*
G04 #@! TO.N,COL0*
X64596250Y-83096000D02*
X65621000Y-83096000D01*
X65621000Y-83096000D02*
X65786000Y-82931000D01*
X70548500Y-82931000D02*
X75565000Y-87947500D01*
X65786000Y-82931000D02*
X70548500Y-82931000D01*
G04 #@! TO.N,COL1*
X64596250Y-82296000D02*
X65659000Y-82296000D01*
X65659000Y-82296000D02*
X65786000Y-82423000D01*
X89090500Y-82423000D02*
X94615000Y-87947500D01*
X65786000Y-82423000D02*
X89090500Y-82423000D01*
G04 #@! TO.N,Net-(R1-Pad2)*
X55696250Y-76596000D02*
X55696250Y-75508250D01*
X55696250Y-75508250D02*
X55372000Y-75184000D01*
X55372000Y-75184000D02*
X53340000Y-75184000D01*
X53340000Y-75184000D02*
X52324000Y-76200000D01*
X52324000Y-76200000D02*
X50165000Y-76200000D01*
X48956000Y-74991000D02*
X47974250Y-74991000D01*
X50165000Y-76200000D02*
X48956000Y-74991000D01*
X41584001Y-93657845D02*
X43492845Y-93657845D01*
X43492845Y-93657845D02*
X43561000Y-93726000D01*
X47913250Y-74930000D02*
X47974250Y-74991000D01*
X46355000Y-74930000D02*
X47913250Y-74930000D01*
G04 #@! TO.N,Net-(R2-Pad1)*
X52070000Y-83896000D02*
X53196250Y-83896000D01*
X51892000Y-84074000D02*
X52070000Y-83896000D01*
X43434000Y-84074000D02*
X51892000Y-84074000D01*
X39497000Y-80137000D02*
X43434000Y-84074000D01*
X39497000Y-76261000D02*
X39497000Y-80137000D01*
X40894000Y-74864000D02*
X39497000Y-76261000D01*
G04 #@! TO.N,D+*
X39687500Y-71757500D02*
X40894000Y-72964000D01*
X39687500Y-69469000D02*
X39624000Y-69469000D01*
X39687500Y-68000000D02*
X39687500Y-69469000D01*
X39624000Y-69469000D02*
X39497000Y-69596000D01*
X39497000Y-71567000D02*
X39687500Y-71757500D01*
X39497000Y-69596000D02*
X39497000Y-71567000D01*
G04 #@! TO.N,D-*
X38674000Y-71882000D02*
X37592000Y-72964000D01*
X38989000Y-71567000D02*
X38674000Y-71882000D01*
X38989000Y-69570500D02*
X38989000Y-71567000D01*
X38887500Y-69469000D02*
X38989000Y-69570500D01*
X38887500Y-68000000D02*
X38887500Y-69469000D01*
G04 #@! TO.N,Net-(R3-Pad1)*
X52070000Y-84696000D02*
X53196250Y-84696000D01*
X51956000Y-84582000D02*
X52070000Y-84696000D01*
X43116500Y-84582000D02*
X51956000Y-84582000D01*
X38989000Y-80454500D02*
X43116500Y-84582000D01*
X38989000Y-76261000D02*
X38989000Y-80454500D01*
X37592000Y-74864000D02*
X38989000Y-76261000D01*
G04 #@! TO.N,Net-(R4-Pad2)*
X64596250Y-86296000D02*
X66230000Y-86296000D01*
X66487000Y-86553000D02*
X68199000Y-86553000D01*
X66230000Y-86296000D02*
X66487000Y-86553000D01*
G04 #@! TD*
G04 #@! TO.N,GND*
G36*
X41852500Y-62853744D02*
X41852500Y-64146255D01*
X41938661Y-64579417D01*
X42266875Y-65070625D01*
X42758082Y-65398839D01*
X43337500Y-65514092D01*
X43529250Y-65475951D01*
X43529250Y-66024049D01*
X43337500Y-65985908D01*
X42758083Y-66101161D01*
X42266876Y-66429375D01*
X42126967Y-66638764D01*
X42075827Y-66515302D01*
X41897199Y-66336673D01*
X41663810Y-66240000D01*
X41571250Y-66240000D01*
X41412500Y-66398750D01*
X41412500Y-67873000D01*
X41434500Y-67873000D01*
X41434500Y-68127000D01*
X41412500Y-68127000D01*
X41412500Y-68147000D01*
X41384940Y-68147000D01*
X41384940Y-66875000D01*
X41335657Y-66627235D01*
X41195309Y-66417191D01*
X41152008Y-66388258D01*
X41003750Y-66240000D01*
X40911190Y-66240000D01*
X40875131Y-66254936D01*
X40737500Y-66227560D01*
X40237500Y-66227560D01*
X40087500Y-66257397D01*
X39937500Y-66227560D01*
X39437500Y-66227560D01*
X39287500Y-66257397D01*
X39137500Y-66227560D01*
X38637500Y-66227560D01*
X38487500Y-66257397D01*
X38337500Y-66227560D01*
X37837500Y-66227560D01*
X37589735Y-66276843D01*
X37379691Y-66417191D01*
X37239837Y-66626496D01*
X37108125Y-66429375D01*
X36616918Y-66101161D01*
X36037500Y-65985908D01*
X35845750Y-66024049D01*
X35845750Y-65475951D01*
X36037500Y-65514092D01*
X36616917Y-65398839D01*
X37108125Y-65070625D01*
X37436339Y-64579418D01*
X37522500Y-64146256D01*
X37522500Y-62853744D01*
X37476503Y-62622500D01*
X41898497Y-62622500D01*
X41852500Y-62853744D01*
X41852500Y-62853744D01*
G37*
X41852500Y-62853744D02*
X41852500Y-64146255D01*
X41938661Y-64579417D01*
X42266875Y-65070625D01*
X42758082Y-65398839D01*
X43337500Y-65514092D01*
X43529250Y-65475951D01*
X43529250Y-66024049D01*
X43337500Y-65985908D01*
X42758083Y-66101161D01*
X42266876Y-66429375D01*
X42126967Y-66638764D01*
X42075827Y-66515302D01*
X41897199Y-66336673D01*
X41663810Y-66240000D01*
X41571250Y-66240000D01*
X41412500Y-66398750D01*
X41412500Y-67873000D01*
X41434500Y-67873000D01*
X41434500Y-68127000D01*
X41412500Y-68127000D01*
X41412500Y-68147000D01*
X41384940Y-68147000D01*
X41384940Y-66875000D01*
X41335657Y-66627235D01*
X41195309Y-66417191D01*
X41152008Y-66388258D01*
X41003750Y-66240000D01*
X40911190Y-66240000D01*
X40875131Y-66254936D01*
X40737500Y-66227560D01*
X40237500Y-66227560D01*
X40087500Y-66257397D01*
X39937500Y-66227560D01*
X39437500Y-66227560D01*
X39287500Y-66257397D01*
X39137500Y-66227560D01*
X38637500Y-66227560D01*
X38487500Y-66257397D01*
X38337500Y-66227560D01*
X37837500Y-66227560D01*
X37589735Y-66276843D01*
X37379691Y-66417191D01*
X37239837Y-66626496D01*
X37108125Y-66429375D01*
X36616918Y-66101161D01*
X36037500Y-65985908D01*
X35845750Y-66024049D01*
X35845750Y-65475951D01*
X36037500Y-65514092D01*
X36616917Y-65398839D01*
X37108125Y-65070625D01*
X37436339Y-64579418D01*
X37522500Y-64146256D01*
X37522500Y-62853744D01*
X37476503Y-62622500D01*
X41898497Y-62622500D01*
X41852500Y-62853744D01*
G36*
X66548000Y-75279250D02*
X63466019Y-75279250D01*
X63419015Y-75247843D01*
X63171250Y-75198560D01*
X62621250Y-75198560D01*
X62496250Y-75223424D01*
X62371250Y-75198560D01*
X61821250Y-75198560D01*
X61696250Y-75223424D01*
X61571250Y-75198560D01*
X61021250Y-75198560D01*
X60896250Y-75223424D01*
X60771250Y-75198560D01*
X60221250Y-75198560D01*
X60096250Y-75223424D01*
X59971250Y-75198560D01*
X59658250Y-75198560D01*
X59658250Y-73467630D01*
X60100999Y-73024882D01*
X60164621Y-72982371D01*
X60333038Y-72730317D01*
X60377250Y-72508048D01*
X60377250Y-72508047D01*
X60392178Y-72433000D01*
X60377250Y-72357953D01*
X60377250Y-71427108D01*
X60563015Y-71390157D01*
X60773059Y-71249809D01*
X60870486Y-71104000D01*
X61619605Y-71104000D01*
X61750441Y-71299809D01*
X61960485Y-71440157D01*
X62208250Y-71489440D01*
X63458250Y-71489440D01*
X63706015Y-71440157D01*
X63916059Y-71299809D01*
X64056407Y-71089765D01*
X64105690Y-70842000D01*
X64105690Y-69842000D01*
X64056407Y-69594235D01*
X63916059Y-69384191D01*
X63854930Y-69343346D01*
X63996577Y-69201698D01*
X64093250Y-68968309D01*
X64093250Y-68627750D01*
X63934500Y-68469000D01*
X62960250Y-68469000D01*
X62960250Y-68489000D01*
X62706250Y-68489000D01*
X62706250Y-68469000D01*
X61732000Y-68469000D01*
X61573250Y-68627750D01*
X61573250Y-68968309D01*
X61669923Y-69201698D01*
X61811570Y-69343346D01*
X61750441Y-69384191D01*
X61619605Y-69580000D01*
X60960303Y-69580000D01*
X60913407Y-69344235D01*
X60903952Y-69330084D01*
X60950250Y-69218310D01*
X60950250Y-68777750D01*
X60791500Y-68619000D01*
X59742250Y-68619000D01*
X59742250Y-68639000D01*
X59488250Y-68639000D01*
X59488250Y-68619000D01*
X59468250Y-68619000D01*
X59468250Y-68365000D01*
X59488250Y-68365000D01*
X59488250Y-67415750D01*
X59742250Y-67415750D01*
X59742250Y-68365000D01*
X60791500Y-68365000D01*
X60950250Y-68206250D01*
X60950250Y-67765690D01*
X60929540Y-67715691D01*
X61573250Y-67715691D01*
X61573250Y-68056250D01*
X61732000Y-68215000D01*
X62706250Y-68215000D01*
X62706250Y-67365750D01*
X62960250Y-67365750D01*
X62960250Y-68215000D01*
X63934500Y-68215000D01*
X64093250Y-68056250D01*
X64093250Y-67715691D01*
X63996577Y-67482302D01*
X63817949Y-67303673D01*
X63584560Y-67207000D01*
X63119000Y-67207000D01*
X62960250Y-67365750D01*
X62706250Y-67365750D01*
X62547500Y-67207000D01*
X62081940Y-67207000D01*
X61848551Y-67303673D01*
X61669923Y-67482302D01*
X61573250Y-67715691D01*
X60929540Y-67715691D01*
X60853577Y-67532301D01*
X60674948Y-67353673D01*
X60441559Y-67257000D01*
X59901000Y-67257000D01*
X59742250Y-67415750D01*
X59488250Y-67415750D01*
X59329500Y-67257000D01*
X58788941Y-67257000D01*
X58555552Y-67353673D01*
X58514297Y-67394927D01*
X58363015Y-67293843D01*
X58115250Y-67244560D01*
X56715250Y-67244560D01*
X56467485Y-67293843D01*
X56257441Y-67434191D01*
X56160014Y-67580000D01*
X55537895Y-67580000D01*
X55407059Y-67384191D01*
X55197015Y-67243843D01*
X54949250Y-67194560D01*
X53699250Y-67194560D01*
X53451485Y-67243843D01*
X53241441Y-67384191D01*
X53101093Y-67594235D01*
X53051810Y-67842000D01*
X53051810Y-68842000D01*
X53101093Y-69089765D01*
X53241441Y-69299809D01*
X53302570Y-69340654D01*
X53160923Y-69482302D01*
X53064250Y-69715691D01*
X53064250Y-70056250D01*
X53223000Y-70215000D01*
X54197250Y-70215000D01*
X54197250Y-70195000D01*
X54451250Y-70195000D01*
X54451250Y-70215000D01*
X54471250Y-70215000D01*
X54471250Y-70469000D01*
X54451250Y-70469000D01*
X54451250Y-71318250D01*
X54610000Y-71477000D01*
X55075560Y-71477000D01*
X55308949Y-71380327D01*
X55371209Y-71318067D01*
X55372000Y-71322043D01*
X55372000Y-71322047D01*
X55416212Y-71544316D01*
X55584629Y-71796371D01*
X55648253Y-71838883D01*
X57334251Y-73524882D01*
X57334250Y-75211000D01*
X57296499Y-75211000D01*
X57273854Y-75097156D01*
X57091402Y-74824098D01*
X57022476Y-74778043D01*
X56267209Y-74022777D01*
X56221152Y-73953848D01*
X55948094Y-73771396D01*
X55707303Y-73723500D01*
X55707301Y-73723500D01*
X55626000Y-73707328D01*
X55544699Y-73723500D01*
X52913297Y-73723500D01*
X52831999Y-73707329D01*
X52750701Y-73723500D01*
X52750697Y-73723500D01*
X52630033Y-73747501D01*
X52663250Y-73667309D01*
X52663250Y-73326750D01*
X52504500Y-73168000D01*
X51530250Y-73168000D01*
X51530250Y-73188000D01*
X51276250Y-73188000D01*
X51276250Y-73168000D01*
X51256250Y-73168000D01*
X51256250Y-72914000D01*
X51276250Y-72914000D01*
X51276250Y-72064750D01*
X51530250Y-72064750D01*
X51530250Y-72914000D01*
X52504500Y-72914000D01*
X52663250Y-72755250D01*
X52663250Y-72414691D01*
X52566577Y-72181302D01*
X52387949Y-72002673D01*
X52154560Y-71906000D01*
X51689000Y-71906000D01*
X51530250Y-72064750D01*
X51276250Y-72064750D01*
X51117500Y-71906000D01*
X50927000Y-71906000D01*
X50927000Y-70627750D01*
X53064250Y-70627750D01*
X53064250Y-70968309D01*
X53160923Y-71201698D01*
X53339551Y-71380327D01*
X53572940Y-71477000D01*
X54038500Y-71477000D01*
X54197250Y-71318250D01*
X54197250Y-70469000D01*
X53223000Y-70469000D01*
X53064250Y-70627750D01*
X50927000Y-70627750D01*
X50927000Y-65214500D01*
X66548000Y-65214500D01*
X66548000Y-75279250D01*
X66548000Y-75279250D01*
G37*
X66548000Y-75279250D02*
X63466019Y-75279250D01*
X63419015Y-75247843D01*
X63171250Y-75198560D01*
X62621250Y-75198560D01*
X62496250Y-75223424D01*
X62371250Y-75198560D01*
X61821250Y-75198560D01*
X61696250Y-75223424D01*
X61571250Y-75198560D01*
X61021250Y-75198560D01*
X60896250Y-75223424D01*
X60771250Y-75198560D01*
X60221250Y-75198560D01*
X60096250Y-75223424D01*
X59971250Y-75198560D01*
X59658250Y-75198560D01*
X59658250Y-73467630D01*
X60100999Y-73024882D01*
X60164621Y-72982371D01*
X60333038Y-72730317D01*
X60377250Y-72508048D01*
X60377250Y-72508047D01*
X60392178Y-72433000D01*
X60377250Y-72357953D01*
X60377250Y-71427108D01*
X60563015Y-71390157D01*
X60773059Y-71249809D01*
X60870486Y-71104000D01*
X61619605Y-71104000D01*
X61750441Y-71299809D01*
X61960485Y-71440157D01*
X62208250Y-71489440D01*
X63458250Y-71489440D01*
X63706015Y-71440157D01*
X63916059Y-71299809D01*
X64056407Y-71089765D01*
X64105690Y-70842000D01*
X64105690Y-69842000D01*
X64056407Y-69594235D01*
X63916059Y-69384191D01*
X63854930Y-69343346D01*
X63996577Y-69201698D01*
X64093250Y-68968309D01*
X64093250Y-68627750D01*
X63934500Y-68469000D01*
X62960250Y-68469000D01*
X62960250Y-68489000D01*
X62706250Y-68489000D01*
X62706250Y-68469000D01*
X61732000Y-68469000D01*
X61573250Y-68627750D01*
X61573250Y-68968309D01*
X61669923Y-69201698D01*
X61811570Y-69343346D01*
X61750441Y-69384191D01*
X61619605Y-69580000D01*
X60960303Y-69580000D01*
X60913407Y-69344235D01*
X60903952Y-69330084D01*
X60950250Y-69218310D01*
X60950250Y-68777750D01*
X60791500Y-68619000D01*
X59742250Y-68619000D01*
X59742250Y-68639000D01*
X59488250Y-68639000D01*
X59488250Y-68619000D01*
X59468250Y-68619000D01*
X59468250Y-68365000D01*
X59488250Y-68365000D01*
X59488250Y-67415750D01*
X59742250Y-67415750D01*
X59742250Y-68365000D01*
X60791500Y-68365000D01*
X60950250Y-68206250D01*
X60950250Y-67765690D01*
X60929540Y-67715691D01*
X61573250Y-67715691D01*
X61573250Y-68056250D01*
X61732000Y-68215000D01*
X62706250Y-68215000D01*
X62706250Y-67365750D01*
X62960250Y-67365750D01*
X62960250Y-68215000D01*
X63934500Y-68215000D01*
X64093250Y-68056250D01*
X64093250Y-67715691D01*
X63996577Y-67482302D01*
X63817949Y-67303673D01*
X63584560Y-67207000D01*
X63119000Y-67207000D01*
X62960250Y-67365750D01*
X62706250Y-67365750D01*
X62547500Y-67207000D01*
X62081940Y-67207000D01*
X61848551Y-67303673D01*
X61669923Y-67482302D01*
X61573250Y-67715691D01*
X60929540Y-67715691D01*
X60853577Y-67532301D01*
X60674948Y-67353673D01*
X60441559Y-67257000D01*
X59901000Y-67257000D01*
X59742250Y-67415750D01*
X59488250Y-67415750D01*
X59329500Y-67257000D01*
X58788941Y-67257000D01*
X58555552Y-67353673D01*
X58514297Y-67394927D01*
X58363015Y-67293843D01*
X58115250Y-67244560D01*
X56715250Y-67244560D01*
X56467485Y-67293843D01*
X56257441Y-67434191D01*
X56160014Y-67580000D01*
X55537895Y-67580000D01*
X55407059Y-67384191D01*
X55197015Y-67243843D01*
X54949250Y-67194560D01*
X53699250Y-67194560D01*
X53451485Y-67243843D01*
X53241441Y-67384191D01*
X53101093Y-67594235D01*
X53051810Y-67842000D01*
X53051810Y-68842000D01*
X53101093Y-69089765D01*
X53241441Y-69299809D01*
X53302570Y-69340654D01*
X53160923Y-69482302D01*
X53064250Y-69715691D01*
X53064250Y-70056250D01*
X53223000Y-70215000D01*
X54197250Y-70215000D01*
X54197250Y-70195000D01*
X54451250Y-70195000D01*
X54451250Y-70215000D01*
X54471250Y-70215000D01*
X54471250Y-70469000D01*
X54451250Y-70469000D01*
X54451250Y-71318250D01*
X54610000Y-71477000D01*
X55075560Y-71477000D01*
X55308949Y-71380327D01*
X55371209Y-71318067D01*
X55372000Y-71322043D01*
X55372000Y-71322047D01*
X55416212Y-71544316D01*
X55584629Y-71796371D01*
X55648253Y-71838883D01*
X57334251Y-73524882D01*
X57334250Y-75211000D01*
X57296499Y-75211000D01*
X57273854Y-75097156D01*
X57091402Y-74824098D01*
X57022476Y-74778043D01*
X56267209Y-74022777D01*
X56221152Y-73953848D01*
X55948094Y-73771396D01*
X55707303Y-73723500D01*
X55707301Y-73723500D01*
X55626000Y-73707328D01*
X55544699Y-73723500D01*
X52913297Y-73723500D01*
X52831999Y-73707329D01*
X52750701Y-73723500D01*
X52750697Y-73723500D01*
X52630033Y-73747501D01*
X52663250Y-73667309D01*
X52663250Y-73326750D01*
X52504500Y-73168000D01*
X51530250Y-73168000D01*
X51530250Y-73188000D01*
X51276250Y-73188000D01*
X51276250Y-73168000D01*
X51256250Y-73168000D01*
X51256250Y-72914000D01*
X51276250Y-72914000D01*
X51276250Y-72064750D01*
X51530250Y-72064750D01*
X51530250Y-72914000D01*
X52504500Y-72914000D01*
X52663250Y-72755250D01*
X52663250Y-72414691D01*
X52566577Y-72181302D01*
X52387949Y-72002673D01*
X52154560Y-71906000D01*
X51689000Y-71906000D01*
X51530250Y-72064750D01*
X51276250Y-72064750D01*
X51117500Y-71906000D01*
X50927000Y-71906000D01*
X50927000Y-70627750D01*
X53064250Y-70627750D01*
X53064250Y-70968309D01*
X53160923Y-71201698D01*
X53339551Y-71380327D01*
X53572940Y-71477000D01*
X54038500Y-71477000D01*
X54197250Y-71318250D01*
X54197250Y-70469000D01*
X53223000Y-70469000D01*
X53064250Y-70627750D01*
X50927000Y-70627750D01*
X50927000Y-65214500D01*
X66548000Y-65214500D01*
X66548000Y-75279250D01*
G36*
X57542250Y-70065000D02*
X57562250Y-70065000D01*
X57562250Y-70319000D01*
X57542250Y-70319000D01*
X57542250Y-71268250D01*
X57701000Y-71427000D01*
X58241559Y-71427000D01*
X58474948Y-71330327D01*
X58516203Y-71289073D01*
X58667485Y-71390157D01*
X58853251Y-71427108D01*
X58853251Y-72117368D01*
X58467625Y-72502994D01*
X57260565Y-71295935D01*
X57288250Y-71268250D01*
X57288250Y-70319000D01*
X57268250Y-70319000D01*
X57268250Y-70065000D01*
X57288250Y-70065000D01*
X57288250Y-70045000D01*
X57542250Y-70045000D01*
X57542250Y-70065000D01*
X57542250Y-70065000D01*
G37*
X57542250Y-70065000D02*
X57562250Y-70065000D01*
X57562250Y-70319000D01*
X57542250Y-70319000D01*
X57542250Y-71268250D01*
X57701000Y-71427000D01*
X58241559Y-71427000D01*
X58474948Y-71330327D01*
X58516203Y-71289073D01*
X58667485Y-71390157D01*
X58853251Y-71427108D01*
X58853251Y-72117368D01*
X58467625Y-72502994D01*
X57260565Y-71295935D01*
X57288250Y-71268250D01*
X57288250Y-70319000D01*
X57268250Y-70319000D01*
X57268250Y-70065000D01*
X57288250Y-70065000D01*
X57288250Y-70045000D01*
X57542250Y-70045000D01*
X57542250Y-70065000D01*
G36*
X57582000Y-77981000D02*
X57697560Y-77981000D01*
X57717398Y-77972783D01*
X57821250Y-77993440D01*
X58371250Y-77993440D01*
X58496250Y-77968576D01*
X58621250Y-77993440D01*
X59171250Y-77993440D01*
X59296250Y-77968576D01*
X59421250Y-77993440D01*
X59971250Y-77993440D01*
X60096250Y-77968576D01*
X60221250Y-77993440D01*
X60771250Y-77993440D01*
X60896250Y-77968576D01*
X61021250Y-77993440D01*
X61571250Y-77993440D01*
X61696250Y-77968576D01*
X61821250Y-77993440D01*
X62371250Y-77993440D01*
X62496250Y-77968576D01*
X62621250Y-77993440D01*
X63171250Y-77993440D01*
X63211250Y-77985484D01*
X63211250Y-78010250D01*
X63370000Y-78169000D01*
X63373000Y-78169000D01*
X63373000Y-78386300D01*
X63305138Y-78487862D01*
X63211250Y-78581750D01*
X63211250Y-78697310D01*
X63219467Y-78717148D01*
X63198810Y-78821000D01*
X63198810Y-79371000D01*
X63223674Y-79496000D01*
X63198810Y-79621000D01*
X63198810Y-80171000D01*
X63223674Y-80296000D01*
X63198810Y-80421000D01*
X63198810Y-80971000D01*
X63223674Y-81096000D01*
X63198810Y-81221000D01*
X63198810Y-81771000D01*
X63223674Y-81896000D01*
X63198810Y-82021000D01*
X63198810Y-82571000D01*
X63223674Y-82696000D01*
X63198810Y-82821000D01*
X63198810Y-83371000D01*
X63223674Y-83496000D01*
X63198810Y-83621000D01*
X63198810Y-84171000D01*
X63223674Y-84296000D01*
X63198810Y-84421000D01*
X63198810Y-84971000D01*
X63223674Y-85096000D01*
X63198810Y-85221000D01*
X63198810Y-85771000D01*
X63223674Y-85896000D01*
X63198810Y-86021000D01*
X63198810Y-86571000D01*
X63205653Y-86605403D01*
X63171250Y-86598560D01*
X62621250Y-86598560D01*
X62517398Y-86619217D01*
X62497560Y-86611000D01*
X62382000Y-86611000D01*
X62288112Y-86704888D01*
X62163441Y-86788191D01*
X62096250Y-86888749D01*
X62029059Y-86788191D01*
X61904388Y-86704888D01*
X61810500Y-86611000D01*
X61694940Y-86611000D01*
X61675102Y-86619217D01*
X61571250Y-86598560D01*
X61021250Y-86598560D01*
X60896250Y-86623424D01*
X60771250Y-86598560D01*
X60221250Y-86598560D01*
X60096250Y-86623424D01*
X59971250Y-86598560D01*
X59421250Y-86598560D01*
X59296250Y-86623424D01*
X59171250Y-86598560D01*
X58621250Y-86598560D01*
X58496250Y-86623424D01*
X58371250Y-86598560D01*
X57821250Y-86598560D01*
X57696250Y-86623424D01*
X57571250Y-86598560D01*
X57021250Y-86598560D01*
X56896250Y-86623424D01*
X56771250Y-86598560D01*
X56221250Y-86598560D01*
X56117398Y-86619217D01*
X56097560Y-86611000D01*
X55982000Y-86611000D01*
X55888112Y-86704888D01*
X55763441Y-86788191D01*
X55696250Y-86888749D01*
X55629059Y-86788191D01*
X55504388Y-86704888D01*
X55410500Y-86611000D01*
X55294940Y-86611000D01*
X55275102Y-86619217D01*
X55171250Y-86598560D01*
X54621250Y-86598560D01*
X54586847Y-86605403D01*
X54593690Y-86571000D01*
X54593690Y-86021000D01*
X54568826Y-85896000D01*
X54593690Y-85771000D01*
X54593690Y-85221000D01*
X54568826Y-85096000D01*
X54593690Y-84971000D01*
X54593690Y-84421000D01*
X54568826Y-84296000D01*
X54593690Y-84171000D01*
X54593690Y-83621000D01*
X54573033Y-83517148D01*
X54581250Y-83497310D01*
X54581250Y-83381750D01*
X54487362Y-83287862D01*
X54404059Y-83163191D01*
X54303501Y-83096000D01*
X54404059Y-83028809D01*
X54487362Y-82904138D01*
X54581250Y-82810250D01*
X54581250Y-82694690D01*
X54573033Y-82674852D01*
X54593690Y-82571000D01*
X54593690Y-82021000D01*
X54568826Y-81896000D01*
X54593690Y-81771000D01*
X54593690Y-81221000D01*
X54568826Y-81096000D01*
X54593690Y-80971000D01*
X54593690Y-80421000D01*
X54568826Y-80296000D01*
X54593690Y-80171000D01*
X54593690Y-79621000D01*
X54568826Y-79496000D01*
X54593690Y-79371000D01*
X54593690Y-78821000D01*
X54568826Y-78696000D01*
X54593690Y-78571000D01*
X54593690Y-78021000D01*
X54586847Y-77986597D01*
X54621250Y-77993440D01*
X55171250Y-77993440D01*
X55296250Y-77968576D01*
X55421250Y-77993440D01*
X55971250Y-77993440D01*
X56096250Y-77968576D01*
X56221250Y-77993440D01*
X56771250Y-77993440D01*
X56875102Y-77972783D01*
X56894940Y-77981000D01*
X57010500Y-77981000D01*
X57077000Y-77914500D01*
X57515500Y-77914500D01*
X57582000Y-77981000D01*
X57582000Y-77981000D01*
G37*
X57582000Y-77981000D02*
X57697560Y-77981000D01*
X57717398Y-77972783D01*
X57821250Y-77993440D01*
X58371250Y-77993440D01*
X58496250Y-77968576D01*
X58621250Y-77993440D01*
X59171250Y-77993440D01*
X59296250Y-77968576D01*
X59421250Y-77993440D01*
X59971250Y-77993440D01*
X60096250Y-77968576D01*
X60221250Y-77993440D01*
X60771250Y-77993440D01*
X60896250Y-77968576D01*
X61021250Y-77993440D01*
X61571250Y-77993440D01*
X61696250Y-77968576D01*
X61821250Y-77993440D01*
X62371250Y-77993440D01*
X62496250Y-77968576D01*
X62621250Y-77993440D01*
X63171250Y-77993440D01*
X63211250Y-77985484D01*
X63211250Y-78010250D01*
X63370000Y-78169000D01*
X63373000Y-78169000D01*
X63373000Y-78386300D01*
X63305138Y-78487862D01*
X63211250Y-78581750D01*
X63211250Y-78697310D01*
X63219467Y-78717148D01*
X63198810Y-78821000D01*
X63198810Y-79371000D01*
X63223674Y-79496000D01*
X63198810Y-79621000D01*
X63198810Y-80171000D01*
X63223674Y-80296000D01*
X63198810Y-80421000D01*
X63198810Y-80971000D01*
X63223674Y-81096000D01*
X63198810Y-81221000D01*
X63198810Y-81771000D01*
X63223674Y-81896000D01*
X63198810Y-82021000D01*
X63198810Y-82571000D01*
X63223674Y-82696000D01*
X63198810Y-82821000D01*
X63198810Y-83371000D01*
X63223674Y-83496000D01*
X63198810Y-83621000D01*
X63198810Y-84171000D01*
X63223674Y-84296000D01*
X63198810Y-84421000D01*
X63198810Y-84971000D01*
X63223674Y-85096000D01*
X63198810Y-85221000D01*
X63198810Y-85771000D01*
X63223674Y-85896000D01*
X63198810Y-86021000D01*
X63198810Y-86571000D01*
X63205653Y-86605403D01*
X63171250Y-86598560D01*
X62621250Y-86598560D01*
X62517398Y-86619217D01*
X62497560Y-86611000D01*
X62382000Y-86611000D01*
X62288112Y-86704888D01*
X62163441Y-86788191D01*
X62096250Y-86888749D01*
X62029059Y-86788191D01*
X61904388Y-86704888D01*
X61810500Y-86611000D01*
X61694940Y-86611000D01*
X61675102Y-86619217D01*
X61571250Y-86598560D01*
X61021250Y-86598560D01*
X60896250Y-86623424D01*
X60771250Y-86598560D01*
X60221250Y-86598560D01*
X60096250Y-86623424D01*
X59971250Y-86598560D01*
X59421250Y-86598560D01*
X59296250Y-86623424D01*
X59171250Y-86598560D01*
X58621250Y-86598560D01*
X58496250Y-86623424D01*
X58371250Y-86598560D01*
X57821250Y-86598560D01*
X57696250Y-86623424D01*
X57571250Y-86598560D01*
X57021250Y-86598560D01*
X56896250Y-86623424D01*
X56771250Y-86598560D01*
X56221250Y-86598560D01*
X56117398Y-86619217D01*
X56097560Y-86611000D01*
X55982000Y-86611000D01*
X55888112Y-86704888D01*
X55763441Y-86788191D01*
X55696250Y-86888749D01*
X55629059Y-86788191D01*
X55504388Y-86704888D01*
X55410500Y-86611000D01*
X55294940Y-86611000D01*
X55275102Y-86619217D01*
X55171250Y-86598560D01*
X54621250Y-86598560D01*
X54586847Y-86605403D01*
X54593690Y-86571000D01*
X54593690Y-86021000D01*
X54568826Y-85896000D01*
X54593690Y-85771000D01*
X54593690Y-85221000D01*
X54568826Y-85096000D01*
X54593690Y-84971000D01*
X54593690Y-84421000D01*
X54568826Y-84296000D01*
X54593690Y-84171000D01*
X54593690Y-83621000D01*
X54573033Y-83517148D01*
X54581250Y-83497310D01*
X54581250Y-83381750D01*
X54487362Y-83287862D01*
X54404059Y-83163191D01*
X54303501Y-83096000D01*
X54404059Y-83028809D01*
X54487362Y-82904138D01*
X54581250Y-82810250D01*
X54581250Y-82694690D01*
X54573033Y-82674852D01*
X54593690Y-82571000D01*
X54593690Y-82021000D01*
X54568826Y-81896000D01*
X54593690Y-81771000D01*
X54593690Y-81221000D01*
X54568826Y-81096000D01*
X54593690Y-80971000D01*
X54593690Y-80421000D01*
X54568826Y-80296000D01*
X54593690Y-80171000D01*
X54593690Y-79621000D01*
X54568826Y-79496000D01*
X54593690Y-79371000D01*
X54593690Y-78821000D01*
X54568826Y-78696000D01*
X54593690Y-78571000D01*
X54593690Y-78021000D01*
X54586847Y-77986597D01*
X54621250Y-77993440D01*
X55171250Y-77993440D01*
X55296250Y-77968576D01*
X55421250Y-77993440D01*
X55971250Y-77993440D01*
X56096250Y-77968576D01*
X56221250Y-77993440D01*
X56771250Y-77993440D01*
X56875102Y-77972783D01*
X56894940Y-77981000D01*
X57010500Y-77981000D01*
X57077000Y-77914500D01*
X57515500Y-77914500D01*
X57582000Y-77981000D01*
G04 #@! TD*
M02*
