G04 #@! TF.GenerationSoftware,KiCad,Pcbnew,(5.0.0)*
G04 #@! TF.CreationDate,2019-01-07T21:39:53-08:00*
G04 #@! TF.ProjectId,ai03-pcb-guide,616930332D7063622D67756964652E6B,rev?*
G04 #@! TF.SameCoordinates,Original*
G04 #@! TF.FileFunction,Soldermask,Bot*
G04 #@! TF.FilePolarity,Negative*
%FSLAX46Y46*%
G04 Gerber Fmt 4.6, Leading zero omitted, Abs format (unit mm)*
G04 Created by KiCad (PCBNEW (5.0.0)) date 01/07/19 21:39:54*
%MOMM*%
%LPD*%
G01*
G04 APERTURE LIST*
%ADD10R,1.650000X1.400000*%
%ADD11R,1.400000X1.650000*%
%ADD12R,1.600000X1.300000*%
%ADD13R,2.430000X1.540000*%
%ADD14C,2.150000*%
%ADD15R,2.305000X2.305000*%
%ADD16C,2.305000*%
%ADD17C,2.650000*%
%ADD18C,4.387800*%
%ADD19C,2.650000*%
%ADD20R,1.700000X1.100000*%
%ADD21R,2.200000X1.500000*%
%ADD22R,0.950000X1.900000*%
%ADD23R,1.900000X0.950000*%
%ADD24R,0.900000X2.650000*%
%ADD25O,2.100000X3.100000*%
%ADD26R,1.800000X1.600000*%
G04 APERTURE END LIST*
D10*
G04 #@! TO.C,C1*
X62833250Y-70342000D03*
X62833250Y-68342000D03*
G04 #@! TD*
G04 #@! TO.C,C2*
X54324250Y-70342000D03*
X54324250Y-68342000D03*
G04 #@! TD*
D11*
G04 #@! TO.C,C3*
X47736250Y-81788000D03*
X49736250Y-81788000D03*
G04 #@! TD*
D10*
G04 #@! TO.C,C4*
X51403250Y-73041000D03*
X51403250Y-75041000D03*
G04 #@! TD*
G04 #@! TO.C,C5*
X68040250Y-78597000D03*
X68040250Y-76597000D03*
G04 #@! TD*
D11*
G04 #@! TO.C,C6*
X62595250Y-91440000D03*
X64595250Y-91440000D03*
G04 #@! TD*
D10*
G04 #@! TO.C,C7*
X49403000Y-86249000D03*
X49403000Y-88249000D03*
G04 #@! TD*
D12*
G04 #@! TO.C,D1*
X87312500Y-73087500D03*
X87312500Y-69787500D03*
G04 #@! TD*
G04 #@! TO.C,D2*
X106362500Y-69787500D03*
X106362500Y-73087500D03*
G04 #@! TD*
G04 #@! TO.C,D3*
X87312500Y-92137500D03*
X87312500Y-88837500D03*
G04 #@! TD*
G04 #@! TO.C,D4*
X106362500Y-88837500D03*
X106362500Y-92137500D03*
G04 #@! TD*
D13*
G04 #@! TO.C,F1*
X34925000Y-78175000D03*
X34925000Y-80575000D03*
G04 #@! TD*
D14*
G04 #@! TO.C,MX1*
X84455000Y-71437500D03*
X74295000Y-71437500D03*
D15*
X80645000Y-76517500D03*
D16*
X78105000Y-76517500D03*
D17*
X76875000Y-67437500D03*
D18*
X79375000Y-71437500D03*
D17*
X76220001Y-68167500D03*
D19*
X75565000Y-68897500D02*
X76875002Y-67437500D01*
D17*
X81915000Y-66357500D03*
X81895000Y-66647500D03*
D19*
X81875000Y-66937500D02*
X81915000Y-66357500D01*
G04 #@! TD*
D17*
G04 #@! TO.C,MX2*
X100945000Y-66647500D03*
D19*
X100925000Y-66937500D02*
X100965000Y-66357500D01*
D17*
X100965000Y-66357500D03*
X95270001Y-68167500D03*
D19*
X94615000Y-68897500D02*
X95925002Y-67437500D01*
D18*
X98425000Y-71437500D03*
D17*
X95925000Y-67437500D03*
D16*
X97155000Y-76517500D03*
D15*
X99695000Y-76517500D03*
D14*
X93345000Y-71437500D03*
X103505000Y-71437500D03*
G04 #@! TD*
G04 #@! TO.C,MX3*
X84455000Y-90487500D03*
X74295000Y-90487500D03*
D15*
X80645000Y-95567500D03*
D16*
X78105000Y-95567500D03*
D17*
X76875000Y-86487500D03*
D18*
X79375000Y-90487500D03*
D17*
X76220001Y-87217500D03*
D19*
X75565000Y-87947500D02*
X76875002Y-86487500D01*
D17*
X81915000Y-85407500D03*
X81895000Y-85697500D03*
D19*
X81875000Y-85987500D02*
X81915000Y-85407500D01*
G04 #@! TD*
D17*
G04 #@! TO.C,MX4*
X100945000Y-85697500D03*
D19*
X100925000Y-85987500D02*
X100965000Y-85407500D01*
D17*
X100965000Y-85407500D03*
X95270001Y-87217500D03*
D19*
X94615000Y-87947500D02*
X95925002Y-86487500D01*
D18*
X98425000Y-90487500D03*
D17*
X95925000Y-86487500D03*
D16*
X97155000Y-95567500D03*
D15*
X99695000Y-95567500D03*
D14*
X93345000Y-90487500D03*
X103505000Y-90487500D03*
G04 #@! TD*
D20*
G04 #@! TO.C,R1*
X47974250Y-73091000D03*
X47974250Y-74991000D03*
G04 #@! TD*
G04 #@! TO.C,R2*
X40894000Y-74864000D03*
X40894000Y-72964000D03*
G04 #@! TD*
G04 #@! TO.C,R3*
X37592000Y-72964000D03*
X37592000Y-74864000D03*
G04 #@! TD*
G04 #@! TO.C,R4*
X68199000Y-86553000D03*
X68199000Y-88453000D03*
G04 #@! TD*
D21*
G04 #@! TO.C,SW1*
X35384001Y-97357845D03*
X41584001Y-93657845D03*
X35384001Y-93657845D03*
X41584001Y-97357845D03*
G04 #@! TD*
D22*
G04 #@! TO.C,U1*
X54896250Y-87996000D03*
X55696250Y-87996000D03*
X56496250Y-87996000D03*
X57296250Y-87996000D03*
X58096250Y-87996000D03*
X58896250Y-87996000D03*
X59696250Y-87996000D03*
X60496250Y-87996000D03*
X61296250Y-87996000D03*
X62096250Y-87996000D03*
X62896250Y-87996000D03*
D23*
X64596250Y-86296000D03*
X64596250Y-85496000D03*
X64596250Y-84696000D03*
X64596250Y-83896000D03*
X64596250Y-83096000D03*
X64596250Y-82296000D03*
X64596250Y-81496000D03*
X64596250Y-80696000D03*
X64596250Y-79896000D03*
X64596250Y-79096000D03*
X64596250Y-78296000D03*
D22*
X62896250Y-76596000D03*
X62096250Y-76596000D03*
X61296250Y-76596000D03*
X60496250Y-76596000D03*
X59696250Y-76596000D03*
X58896250Y-76596000D03*
X58096250Y-76596000D03*
X57296250Y-76596000D03*
X56496250Y-76596000D03*
X55696250Y-76596000D03*
X54896250Y-76596000D03*
D23*
X53196250Y-78296000D03*
X53196250Y-79096000D03*
X53196250Y-79896000D03*
X53196250Y-80696000D03*
X53196250Y-81496000D03*
X53196250Y-82296000D03*
X53196250Y-83096000D03*
X53196250Y-83896000D03*
X53196250Y-84696000D03*
X53196250Y-85496000D03*
X53196250Y-86296000D03*
G04 #@! TD*
D24*
G04 #@! TO.C,USB1*
X41287500Y-68000000D03*
X40487500Y-68000000D03*
X39687500Y-68000000D03*
X38887500Y-68000000D03*
X38087500Y-68000000D03*
D25*
X36037500Y-68000000D03*
X43337500Y-68000000D03*
X43337500Y-63500000D03*
X36037500Y-63500000D03*
G04 #@! TD*
D26*
G04 #@! TO.C,Y1*
X59615250Y-68492000D03*
X57415250Y-68492000D03*
X57415250Y-70192000D03*
X59615250Y-70192000D03*
G04 #@! TD*
M02*
